<svg width="210" height="128" viewBox="0 0 210 128" fill="none" xmlns="http://www.w3.org/2000/svg">
<path d="M111.365 13.4947C103.752 13.5532 94.9246 15.1779 88.3705 18.3846C73.7549 25.5301 71.5682 37.3007 71.5682 37.3007C71.4858 37.5889 71.3439 38.4659 71.6726 38.8403C72.0074 39.2212 72.4949 39.215 73.0992 39.0298C78.2575 37.4488 93.6334 32.8217 103.335 30.4855C117.143 27.1641 128.485 25.1454 135.766 24.0199C136.282 23.9404 136.745 23.7843 136.94 23.3531C137.219 22.7298 136.652 22.1208 136.652 22.1208C136.652 22.1208 132.187 15.232 116.398 13.7039C114.813 13.5506 113.122 13.4812 111.366 13.4947H111.365ZM111.171 14.7466C119.839 14.7306 128.497 18.1607 128.42 21.15C128.373 23.0865 125.747 23.2442 120.97 24.3075C122.838 23.7982 124.237 22.5068 124.22 21.0421C124.188 18.7266 118.482 15.405 108.97 14.8283C109.702 14.7751 110.436 14.7478 111.171 14.7466ZM91.6199 18.2507C86.1852 21.2656 80.4623 27.4133 78.5931 33.9339C78.3977 35.4429 76.3236 35.2373 76.4532 33.8162C76.7818 30.2415 82.7621 21.7984 91.6199 18.2507Z" fill="black"/>
<path d="M152.706 78.8308C144.442 95.6704 128.587 107.39 107.808 107.657C92.677 107.852 79.3238 103.148 69.68 94.944L63.8474 97.2083L63.8571 89.0145C57.5024 81.2373 53.8179 71.3998 53.8179 60.2243C53.8179 31.6011 77.9804 9.03825 111.679 9.03825C117.179 9.03825 122.15 9.81489 125.898 10.5853C120.124 8.90854 114.386 8 107.998 8C71.8321 8 47.4935 34.608 47.4922 62.0481C47.4922 91.9508 73.3462 116.998 107.282 116.998C139.694 116.998 157.182 96.2634 162.774 83.7937L152.706 78.8308Z" fill="black"/>
<path d="M144.317 72.9146C149.073 72.4251 152.363 70.6906 154.169 69.0819C155.815 67.6147 156.199 65.5944 156.201 64.0936C156.268 61.8885 156.201 54.9299 156.201 54.9299L143.615 57.4006C143.615 57.4006 143.614 58.2615 143.611 60.0683C143.634 61.833 144.571 62.7937 146.61 62.4534C147.249 62.3584 148.232 62.0739 148.232 62.0739L148.249 64.2546C148.238 64.1921 148.435 65.4705 145.264 66.0396C141.113 66.6308 139.226 64.3134 139.177 60.2183C139.259 55.8297 141.994 53.2987 145.312 52.6055C149.044 51.8289 151.157 52.6359 152.398 52.8076C156.567 53.374 157.749 47.7032 153.957 46.373C151.154 45.3485 147.517 45.1633 144.05 45.7914C139.421 46.6291 130.317 50.1448 130.292 61.5681C130.316 70.6451 137.692 73.6033 144.317 72.9146M103.404 82.6435C103.404 82.6435 107.266 81.4416 107.6 81.3351C110.703 80.3634 111.834 78.6888 111.82 75.7907C111.781 72.6437 111.776 66.5073 111.776 66.5073L120.755 75.8949C122.214 77.2615 124.042 77.3783 125.715 76.9327C127.445 76.4731 128.886 75.0377 128.93 73.0133C128.944 66.2342 128.926 49.6895 128.926 49.6895C128.926 49.6895 126.606 50.1362 124.68 50.6318C122.464 51.2015 120.759 52.4836 120.759 55.8681C120.759 57.0664 120.754 63.9424 120.754 63.9424C120.754 63.9424 115.7 58.1917 112.395 55.1923C110.629 53.5909 107.705 54.5469 107.705 54.5469L103.397 55.7299L103.404 82.6435ZM100.685 56.3363C100.685 56.3363 97.9811 57.0559 95.7804 57.7768C92.923 58.7142 91.2757 60.2144 91.2757 64.139C91.2757 67.7437 91.2688 86.5049 91.2688 86.5049C91.2688 86.5049 93.772 85.7283 96.1058 84.9295C99.4238 83.7945 100.676 82.2459 100.676 79.0846C100.676 76.3677 100.685 56.3363 100.685 56.3363ZM87.2654 61.6582C84.7834 60.6352 82.6529 61.7761 81.748 63.0372L74.1187 74.8108L74.1053 65.3191L65.1114 68.6995L65.0833 95.541L71.4188 93.1312C71.4188 93.1312 72.6625 92.8113 73.4131 91.7412C74.1028 90.7555 74.0771 89.102 74.0771 89.102L74.0849 80.5906L81.1656 87.4079C82.7204 88.8729 85.5771 89.6252 88.0978 87.7778C90.377 86.1078 90.024 83.2605 88.7526 81.9854L82.3022 76.094C82.3022 76.094 87.9789 67.9764 88.9069 66.6201C90.1388 64.8185 89.5191 62.5872 87.2654 61.6582ZM146.357 74.7633C146.131 74.767 145.879 74.8054 145.597 74.8647C128.863 78.4339 101.017 86.1469 84.9623 92.3882C84.2713 92.6568 83.9597 92.7543 83.7447 93.2087C83.4099 93.9084 84.1735 94.6044 84.1735 94.6044C87.447 98.3314 101.98 103.056 117.756 99.5957C141.85 94.3087 146.94 78.8429 147.517 76.6593C147.636 76.214 147.731 75.4971 147.276 75.0673C147.037 74.8431 146.734 74.7573 146.357 74.7633ZM140.607 79.0715C141.599 79.0684 142.453 79.9598 141.8 81.2158C137.989 88.5356 131.1 93.4222 123.931 95.9805C132.006 91.8183 136.59 85.7074 138.821 80.5031C139.185 79.494 139.929 79.0736 140.607 79.0715ZM69.4541 58.0318C69.432 56.5524 68.1644 55.7451 65.9739 56.7426L65.9693 61.4987C65.9693 61.4987 66.6776 61.2142 67.1972 60.9947C68.478 60.4556 69.4841 59.486 69.4541 58.0318ZM65.9307 53.7328C66.2717 53.613 66.6068 53.4798 66.9349 53.3334C68.1216 52.8091 68.9662 51.8366 68.976 50.5775C68.9882 49.1434 67.6867 48.7728 65.9332 49.5953L65.9307 53.7328ZM75.2036 57.3523C75.2749 61.1058 72.2948 63.103 68.4127 64.5623L60.4606 67.6277L60.4421 48.0801C60.4421 48.0801 65.4523 46.2268 67.0869 45.6873C71.7332 44.1532 74.4652 46.0024 74.4652 48.8186C74.4652 50.6979 73.5787 52.2952 71.6547 53.6988C73.5494 53.9855 75.1673 55.3977 75.2036 57.3523ZM90.2992 40.8533C90.2992 39.207 89.0511 38.7691 87.5415 39.1633C86.321 39.4803 84.8995 39.9839 84.8995 39.9839L84.8897 52.1366C84.8751 53.347 84.6686 54.8624 83.025 55.2378C81.7635 55.5263 81.1669 54.7626 81.1656 53.5543L81.1478 43.6074C81.1478 41.9526 79.8789 41.4571 78.3741 41.9101C76.6826 42.4226 75.6661 42.7917 75.6661 42.7917C75.6661 42.7917 75.6857 51.3973 75.6626 54.8387C75.6409 58.8727 78.7065 60.8868 83.3789 59.6346C87.5008 58.5287 90.2532 56.4359 90.3053 51.0633L90.2992 40.8533ZM134.494 45.8758C135.681 45.6433 136.422 44.8814 136.422 43.565C136.422 42.3789 136.427 41.4771 136.427 41.4771L129.977 42.7558L129.989 39.3126C129.989 39.3126 133.15 38.7045 134.028 38.5307C135.131 38.3113 135.709 37.7656 135.709 36.6216C135.709 35.5546 135.702 34.6312 135.702 34.6312L129.987 35.7316L129.985 33.0015C129.985 33.0015 132.956 32.4388 134.558 32.1335C135.805 31.8956 136.217 31.1204 136.217 30.0537C136.217 29.3591 136.229 27.9843 136.229 27.9843C133.378 28.4409 127.958 29.4233 124.579 30.1257L124.533 47.9451C124.533 47.9451 130.959 46.5718 134.494 45.8758ZM97.2199 45.156C97.2245 45.1527 100.411 43.6592 100.376 41.29C100.345 39.2642 98.2881 39.7076 97.2212 40.0627L97.2199 45.156ZM97.2281 47.9049C97.2281 47.9049 97.2175 51.3175 97.2122 52.6945C97.1991 53.9855 96.2277 54.9178 94.9977 55.3441C93.9695 55.6642 91.7844 56.3465 91.7844 56.3465L91.7929 37.9969C91.7929 37.9969 96.305 36.5707 98.9583 36.0113C103.082 35.1411 106.014 36.8433 105.961 39.8653C105.935 42.7425 104.166 44.4884 102.577 45.6836L106.069 48.7256C107.142 49.6688 107.217 51.374 106.01 52.4045C105.295 53.0145 103.381 53.6467 101.882 52.263L97.2281 47.9049ZM142.882 35.2867C142.888 35.2867 146.029 34.2012 145.994 31.9159C145.961 29.9831 143.863 30.333 142.873 30.5336L142.882 35.2866M137.61 45.3415L137.619 27.7466C137.619 27.7466 143.281 26.8385 144.743 26.6678C148.802 26.1948 151.526 28.2388 151.47 31.1425C151.448 33.6961 149.68 35.2327 148.177 36.1547C148.177 36.1547 150.938 38.9772 151.678 39.7238C152.672 40.7303 152.628 42.451 151.158 43.2937C149.712 44.1207 148.281 43.6881 147.449 42.8553L142.891 38.005C142.891 38.005 142.906 40.9882 142.902 42.2906C142.889 43.5871 142.062 44.5323 140.58 44.8105L137.61 45.3415Z" fill="black"/>
<path d="M123.263 37.9566L115.231 39.6116C115.231 39.6116 115.222 40.3815 115.22 41.6385C115.231 42.581 115.96 43.1929 117.008 42.9971C117.669 42.8726 118.198 42.7614 118.198 42.7614L118.21 44.7853C118.219 45.586 116.895 46.1104 115.519 46.0815C113.592 46.0361 112.524 44.6775 112.496 42.0922C112.556 38.693 114.318 36.6975 116.719 36.1403C117.918 35.8601 119.009 35.9965 119.856 36.0963C121.926 36.3997 123.117 35.4944 123.16 33.9426C123.203 32.2806 121.578 31.2527 118.09 31.3624C110.528 31.5993 106.662 36.5289 106.662 42.4122C106.662 48.4374 111 51.0988 116.295 50.2305C119.287 49.683 120.776 48.8013 121.807 47.9806C122.838 47.16 123.263 45.9326 123.263 44.8845V37.9566Z" fill="black"/>
</svg>
