<svg width="210" height="128" viewBox="0 0 210 128" fill="none" xmlns="http://www.w3.org/2000/svg">
<rect width="210" height="128" fill="white"/>
<path d="M42.286 96C23.3508 96 8 80.5537 8 61.4999C8 42.4466 23.3508 27 42.286 27H166.714C185.65 27 201 42.4466 201 61.4999C201 80.5537 185.649 95.9997 166.714 95.9997H42.286V96ZM42.286 92.195H166.714C183.561 92.195 197.219 78.4523 197.219 61.5001C197.219 44.5482 183.561 30.805 166.714 30.805H42.286C25.4389 30.805 11.7815 44.5479 11.7815 61.5001C11.7815 78.4523 25.4392 92.195 42.286 92.195ZM42.286 89.4043C26.9706 89.4043 14.5545 76.9112 14.5545 61.4999C14.5545 46.0891 26.9706 33.5954 42.286 33.5954H166.714C182.029 33.5954 194.445 46.0891 194.445 61.4999C194.445 76.9112 182.029 89.4043 166.714 89.4043H42.286ZM76.6612 83.0041H76.2631C75.5957 84.3347 74.6639 84.9059 73.5472 84.9059C71.763 84.9059 71.1717 83.3144 71.1845 80.9507C71.1974 78.6257 72.071 77.3053 73.6112 77.3053C74.8821 77.3053 75.4158 78.0962 75.8779 79.0392H76.2757V77.3727C76.2757 77.1662 76.1345 76.9856 75.775 76.8694C75.1461 76.6623 74.5556 76.4302 73.4131 76.4302C69.2288 76.4302 68.3989 79.0648 68.3989 81.054C68.3989 84.0762 70.0118 85.7815 73.195 85.7815C74.2347 85.7815 75.2617 85.4197 75.6211 85.3036C76.0447 85.1488 76.2757 85.0841 76.3398 84.8129L76.6612 83.0041ZM81.9722 84.1099V81.1187H85.9488V84.1099C85.9488 84.3164 85.9488 84.5358 85.8976 84.6779C85.8461 84.859 85.6009 85.1097 84.9717 85.1353V85.626H89.6343V85.1353C89.0054 85.1095 88.7602 84.859 88.7087 84.6779C88.6575 84.5358 88.6575 84.3161 88.6575 84.1099V78.1013C88.6575 77.8948 88.6575 77.6754 88.7087 77.5333C88.7602 77.3527 89.0054 77.1015 89.6343 77.0759V76.5853H84.9717V77.0759C85.6009 77.1018 85.8461 77.3527 85.8976 77.5333C85.9488 77.6754 85.9488 77.8951 85.9488 78.1013V80.318H81.9722V78.1013C81.9722 77.8948 81.9722 77.6754 82.0234 77.5333C82.0746 77.3527 82.3072 77.1015 82.949 77.0759V76.5853H78.4649V77.0759C79.1067 77.1018 79.1611 77.3527 79.2123 77.5333C79.2635 77.6754 79.2635 77.8951 79.2635 78.1013V84.1099C79.2635 84.3164 79.2635 84.5358 79.2123 84.6779C79.1611 84.859 79.1067 85.1097 78.4649 85.1353V85.626H82.949V85.1353C82.3072 85.1095 82.0746 84.859 82.0234 84.6779C81.9722 84.5358 81.9722 84.3161 81.9722 84.1099ZM94.9413 84.0651V78.1464C94.9413 77.9393 94.9413 77.7199 94.9925 77.5778C95.0437 77.3972 95.2766 77.1012 95.9052 77.0756V76.585H91.3002V77.0756C91.9422 77.1015 92.1302 77.3972 92.1814 77.5778C92.2328 77.7199 92.2328 77.9396 92.2328 78.1464V84.0649C92.2328 84.2714 92.2328 84.4908 92.1814 84.6329C92.1302 84.8135 91.942 85.1095 91.3002 85.1351V85.6257H95.9052V85.1351C95.2763 85.1092 95.0437 84.8135 94.9925 84.6329C94.9413 84.4911 94.9413 84.2714 94.9413 84.0651ZM114.03 79.9096L115.824 78.1348C116.414 77.4503 116.889 77.0753 117.261 77.0753V76.5847H114.116V77.0753C114.835 77.0753 115.292 77.4759 114.727 78.1089L111.444 81.2074V78.1464C111.444 77.9393 111.444 77.7199 111.495 77.5778C111.547 77.3972 111.779 77.1012 112.421 77.0756V76.585H107.759V77.0756C108.4 77.1015 108.633 77.3972 108.684 77.5778C108.735 77.7199 108.735 77.9396 108.735 78.1464V84.2439C108.735 84.4509 108.735 84.4908 108.684 84.6329C108.633 84.8135 108.4 85.1095 107.759 85.1351V85.6257H112.421V85.1351C111.779 85.1092 111.547 84.8135 111.495 84.6329C111.444 84.4908 111.444 84.4506 111.444 84.2439V82.3442L112.059 81.7614L113.955 84.5671C114.302 85.0577 114.555 85.626 115.197 85.626H118.119V84.8636C117.713 84.8636 117.343 84.8509 117.116 84.476L114.03 79.9096ZM119.356 85.1353V85.626H127.331L127.716 83.275H127.318C126.882 84.0632 126.112 84.9803 124.828 84.9803C123.955 84.9803 123.028 84.4633 123.028 84.0759V81.2475H123.699C124.559 81.2475 124.816 82.0094 124.816 82.4054H125.213V79.5018H124.816C124.854 79.8786 124.508 80.6016 123.699 80.6016H123.028V77.2309H125.179C126.039 77.2309 126.872 78.0474 126.987 79.2473H127.385V76.5847H119.356V77.0753C119.985 77.1012 120.217 77.3969 120.268 77.5776C120.32 77.7196 120.32 77.7598 120.32 77.9666V84.0646C120.32 84.2711 120.32 84.4905 120.268 84.6326C120.217 84.8137 119.985 85.1097 119.356 85.1353ZM131.535 80.6254L137.902 86.1422H138.145V78.9084C138.145 78.5084 138.132 78.1334 138.184 77.8107C138.235 77.4358 138.453 77.1015 139.084 77.0756V76.585H136.048V77.0756C137.093 77.1015 137.285 77.4358 137.337 77.8107C137.375 78.1334 137.388 78.5084 137.388 78.9084V82.0754L131.072 76.585H129.508V77.0756C129.903 77.2403 130.405 77.5662 130.777 78.3671V83.3028C130.777 83.7034 130.765 84.0778 130.726 84.401C130.675 84.7755 130.482 85.1097 129.661 85.1356V85.6262H133.062V85.1356C131.843 85.1097 131.624 84.7755 131.573 84.401C131.522 84.0778 131.534 83.7034 131.534 83.3028V80.6254H131.535ZM106.253 83.0041H105.855C105.187 84.3347 104.256 84.9059 103.139 84.9059C101.355 84.9059 100.763 83.3144 100.777 80.9507C100.789 78.6257 101.663 77.3053 103.203 77.3053C104.474 77.3053 105.008 78.0962 105.47 79.0392H105.868V77.3727C105.868 77.1662 105.726 76.9856 105.367 76.8694C104.738 76.6623 104.148 76.4302 103.005 76.4302C98.8208 76.4302 97.9909 79.0648 97.9909 81.054C97.9909 84.0762 99.6038 85.7815 102.787 85.7815C103.827 85.7815 104.853 85.4197 105.213 85.3036C105.636 85.1488 105.867 85.0841 105.932 84.8129L106.253 83.0041ZM28.6347 41.3885C22.2641 45.7753 18.0843 53.1466 18.0843 61.5001C18.0843 65.7031 19.1423 69.5677 20.9999 73.0185L188.069 72.9611C189.888 69.545 190.916 65.6435 190.916 61.5001C190.916 53.0943 186.683 45.7726 180.245 41.3961L28.6347 41.3885ZM42.8859 58.1499C42.8859 64.9084 44.9601 65.6254 46.6266 65.6443C48.6145 65.4464 49.9513 64.8183 50.8335 61.5406H55.3585V68.0834C54.0515 69.3922 50.492 71.4261 44.5363 71.4261C37.7593 71.4261 32.4974 66.133 32.4974 57.8671C32.4974 50.9789 37.2465 43.9921 44.0921 43.9921C46.351 43.9921 47.631 43.9355 49.4106 45.2785L50.1301 44.0323H55.7491V55.5129L51.0458 55.4555C51.0458 54.147 50.3078 50.6991 46.7839 50.6991C43.8905 50.7002 42.8859 54.9813 42.8859 58.1499ZM69.5365 61.3613C69.5365 60.334 68.7533 59.5762 68.0019 59.5762C67.4543 59.5762 66.2756 60.1547 66.2756 61.2163V64.9954C66.2756 65.5119 66.4469 66.2355 67.5709 66.2355V71.0067H56.6438V66.2355C57.993 66.2355 58.3693 65.8912 58.3693 64.4442V50.9474C58.3693 49.7421 58.0956 49.3976 56.6438 49.3976V44.0331H66.1732V56.471C67.0058 55.4296 68.6691 53.4283 71.3907 53.4803C75.2917 53.5552 77.6141 55.7668 77.6141 58.7634V64.81C77.6141 66.1188 77.8538 66.3252 78.6754 66.3252V71.0069H69.5373L69.5365 61.3613ZM91.2263 59.6848C91.2263 58.9616 90.884 58.7206 89.9664 58.7206V53.445H99.1328V64.7199C99.1328 65.9947 99.4752 66.2357 100.297 66.2357V71.0069H91.6372V68.7681C90.6786 70.1459 88.2195 71.2407 85.5496 71.2407C82.4691 71.2407 80.3472 68.7188 80.3472 66.0325V59.6158C80.3472 58.927 79.8339 58.7203 78.6695 58.7203V53.445H88.2878C88.2878 53.445 88.3085 62.9623 88.2878 64.8221C88.2779 65.7155 89.199 66.2694 89.7123 66.2694C90.2259 66.2694 91.226 65.7155 91.226 64.8221L91.2263 59.6848ZM116.834 59.4867C116.286 59.4867 111.644 59.168 111.644 62.7413V64.9957C111.644 65.5122 111.815 66.2357 112.939 66.2357V71.0069H102.012V66.2357C103.361 66.2357 103.738 65.8915 103.738 64.4444V60.3647C103.738 59.1594 103.464 58.8149 102.012 58.8149V53.4504H111.541V55.4843C112.374 54.4429 114.037 53.4283 116.759 53.4803L116.834 59.4867ZM147.795 61.3613C147.795 60.334 147.011 59.5762 146.26 59.5762C145.712 59.5762 144.534 60.1547 144.534 61.2163V64.9954C144.534 65.5119 144.705 66.2355 145.829 66.2355V71.0067H134.902V66.2355C136.251 66.2355 136.627 65.8912 136.627 64.4442V50.9474C136.627 49.7421 136.353 49.3976 134.902 49.3976V44.0331H144.431V56.471C145.263 55.4296 146.927 53.4283 149.649 53.4803C153.55 53.5552 155.872 55.7668 155.872 58.7634V64.81C155.872 66.1188 156.112 66.3252 156.933 66.3252V71.0069H147.795L147.795 61.3613ZM133.646 61.2308H129.902C129.278 59.6166 128.387 59.3476 127.496 59.2575C126.604 59.168 125.356 59.7061 125.356 62.5763C125.356 65.4462 126.426 65.9845 127.317 65.9845C128.209 65.9845 129.546 65.5359 129.724 64.1908H133.646V69.2132C132.042 70.2893 129.011 71.276 126.337 71.276C123.663 71.276 116.8 69.7513 116.8 62.3967C116.8 55.0422 123.306 53.159 125.624 53.159C127.139 53.159 128.655 53.428 129.635 54.4146L130.526 53.428H133.646V61.2308ZM163.182 48.4056C163.127 52.4416 160.863 54.4424 159.8 55.0568C159.938 53.8475 159.405 53.0692 158.959 52.6546C156.627 52.6546 154.737 50.7522 154.737 48.4056C154.737 46.0586 156.627 44.1565 158.959 44.1565C161.292 44.1565 163.182 46.0589 163.182 48.4056ZM163.238 64.325H167.472C168.452 68.3166 171.572 67.5542 171.572 66.2535C171.572 65.0426 168.764 64.5493 166.625 63.7422C164.486 62.9351 162.97 61.6794 163.238 57.6433C163.505 53.6073 168.853 52.8002 170.368 52.8002C171.884 52.8002 173.978 53.5625 175.315 54.1904L176.741 53.428H178.925V59.4371H175.449C175.048 58.0469 174.29 56.7017 172.775 56.6119C171.259 56.5222 171.438 58.1367 172.418 58.63C173.061 58.9535 174.736 59.7509 175.716 60.1994C176.697 60.648 179.326 61.7239 179.326 65.9395C179.326 70.1548 174.201 71.4552 172.507 71.4552C170.814 71.4552 168.764 70.8271 167.338 69.9305L166.179 71.0067H163.238L163.238 64.325ZM183.853 71.5819C182.087 71.5819 180.593 70.2174 180.593 68.3498C180.593 66.4991 182.087 65.1343 183.853 65.1343C185.602 65.1343 187.097 66.4989 187.097 68.3498C187.097 70.2171 185.603 71.5819 183.853 71.5819ZM181.238 68.3498C181.238 69.902 182.384 71.045 183.853 71.045C185.305 71.045 186.452 69.902 186.452 68.3498C186.452 66.8229 185.305 65.6718 183.853 65.6718C182.384 65.6718 181.238 66.8229 181.238 68.3498ZM183.174 68.6056V70.2174H182.613V66.4991H184.023C184.898 66.4991 185.331 66.8229 185.331 67.5569C185.331 68.222 184.914 68.512 184.371 68.58L185.424 70.2174H184.796L183.819 68.6056H183.174ZM183.174 68.1279H183.845C184.32 68.1279 184.745 68.0937 184.745 67.5224C184.745 67.0617 184.329 66.9765 183.938 66.9765H183.174L183.174 68.1279Z" fill="black"/>
</svg>
