<svg width="209" height="128" viewBox="0 0 209 128" fill="none" xmlns="http://www.w3.org/2000/svg">
<path d="M163.298 47.5703C164.002 48.4477 165.001 48.8792 166.3 48.8792C167.097 48.8792 167.818 48.7066 168.453 48.3518C168.853 48.1188 169.214 47.8039 169.521 47.4217C169.886 46.9533 170.162 46.3974 170.331 45.7916C170.529 45.1156 170.63 44.3198 170.63 43.4041C170.63 41.8076 170.286 40.6042 169.594 39.7796C168.902 38.955 167.895 38.5427 166.563 38.5427C165.677 38.5427 164.904 38.7345 164.237 39.118C162.905 39.8851 162.238 41.3953 162.238 43.7061C162.242 45.4081 162.594 46.6978 163.298 47.5703ZM172.754 47.5703C173.458 48.4477 174.458 48.8792 175.757 48.8792C176.554 48.8792 177.274 48.7066 177.91 48.3518C178.309 48.1188 178.671 47.8039 178.978 47.4217C179.314 47.0094 179.585 46.4676 179.787 45.7916C179.99 45.1156 180.087 44.3198 180.087 43.4041C180.087 41.8076 179.743 40.6042 179.051 39.7796C178.359 38.955 177.351 38.5427 176.02 38.5427C175.134 38.5427 174.361 38.7345 173.693 39.118C172.358 39.8851 171.694 41.3953 171.694 43.7061C171.698 45.4081 172.05 46.6978 172.754 47.5703ZM189.823 47.6566C189.74 47.6233 189.67 47.5572 189.624 47.4696C189.564 47.2434 189.535 47.0069 189.539 46.7697C189.511 46.2717 189.497 45.7729 189.495 45.2739V44.3198C189.495 41.122 189.503 38.629 189.523 36.8551C189.527 36.5387 189.564 35.4648 189.632 33.6381L189.41 33.4847C188.311 33.9478 187.168 34.2458 186.007 34.3717V35.1292C186.638 35.1483 186.994 35.1675 187.067 35.1915C187.137 35.2059 187.199 35.2524 187.241 35.3209C187.293 35.412 187.326 35.6278 187.334 35.9873C187.362 36.7209 187.378 37.3441 187.378 37.8667C187.378 38.3078 187.37 38.7297 187.35 39.1228C187.046 38.9771 186.735 38.8507 186.419 38.744C186.194 38.6915 185.965 38.6673 185.736 38.6721C185.369 38.6593 185.003 38.7243 184.655 38.8639C184.167 39.1344 183.704 39.4654 183.275 39.8515C182.636 40.3789 182.247 40.7433 182.114 40.935C181.899 41.2658 181.736 41.6392 181.632 42.0377C181.441 42.7258 181.348 43.4468 181.357 44.1712C181.357 45.6095 181.669 46.7409 182.296 47.5655C182.923 48.3949 183.712 48.8072 184.663 48.8072C184.959 48.8187 185.253 48.7668 185.533 48.6538C185.727 48.5008 185.908 48.3275 186.075 48.136C186.549 47.647 186.982 47.2059 187.378 46.8128L187.358 47.6374L187.314 48.4429L187.391 48.5244L188.94 48.4956L190.749 48.5244V47.7909C190.438 47.7786 190.127 47.7337 189.823 47.6566ZM107.096 47.6183C107.027 47.5751 106.983 47.4984 106.958 47.3737C106.902 47.1149 106.873 46.3813 106.873 45.1684C106.873 44.78 106.881 44.2766 106.898 43.6678C106.926 42.7521 106.938 42.1815 106.938 41.9658C106.938 41.4576 106.902 41.0357 106.833 40.7001C106.764 40.3645 106.631 40.0529 106.436 39.7604C106.242 39.468 105.943 39.2187 105.538 39.0029C105.133 38.7872 104.619 38.6721 103.992 38.6721C103.691 38.6616 103.391 38.6987 103.098 38.7824C102.817 38.9064 102.546 39.0605 102.289 39.2426C101.873 39.5175 101.468 39.8151 101.075 40.1344L101.022 41.448L101.609 41.6014L101.969 40.5707C102.076 40.4849 102.191 40.4156 102.313 40.3645C102.542 40.2884 102.779 40.2513 103.017 40.2542C104.231 40.2542 104.822 41.1124 104.802 42.7377C103.787 42.9323 102.789 43.2339 101.819 43.639C101.519 43.7464 101.235 43.9099 100.978 44.1232C100.767 44.3413 100.595 44.6069 100.472 44.9047C100.303 45.3267 100.223 45.7903 100.237 46.2567C100.237 47.0765 100.411 47.6998 100.767 48.136C101.123 48.5723 101.609 48.7929 102.236 48.7929C102.485 48.7909 102.733 48.7572 102.977 48.6922C103.988 47.7765 104.595 47.2347 104.806 47.0813L104.729 48.4141L104.806 48.5244C105.259 48.4908 105.728 48.4716 106.21 48.4716C106.72 48.4716 107.306 48.4908 107.97 48.5244V47.7621C107.675 47.7561 107.381 47.7078 107.096 47.6183ZM83.1163 46.1368L70.8797 73.7759C70.2809 75.1566 69.6213 75.5354 68.5206 75.5354H28.7274C27.4163 75.5354 26.9955 74.2745 27.8007 73.1286L29.8321 69.4994C30.3702 68.3535 30.9934 68.1522 31.8877 68.1905H64.2273C64.2273 68.1905 69.9531 68.7562 71.9156 63.7414L81.3359 42.2007C79.2308 36.8327 76.2243 32.0294 72.5 28.0843C68.7756 24.1391 64.4116 21.1348 59.6744 19.2549C54.9371 17.375 49.9262 16.6589 44.9476 17.1504C39.969 17.6419 35.1272 19.3306 30.7179 22.1135C26.3086 24.8964 22.4244 28.7149 19.3024 33.336C16.1805 37.9571 13.8864 43.2836 12.5602 48.9903C11.234 54.6971 10.9036 60.6642 11.5892 66.5273C12.2747 72.3904 13.9618 78.0265 16.5474 83.0912L29.1522 54.6179C29.7511 53.2324 30.4107 52.8536 31.5114 52.8536H71.3046C72.6157 52.8536 73.0365 54.1145 72.2313 55.2603L70.1999 58.8896C69.6617 60.0354 69.0386 60.2368 68.1484 60.1985H35.8006C35.8006 60.1985 30.0789 59.6375 28.1123 64.6523L18.3157 87.0608C20.4423 92.391 23.4603 97.1542 27.1866 101.062C30.9129 104.969 35.2701 107.939 39.994 109.793C44.718 111.646 49.7103 112.343 54.6685 111.843C59.6267 111.342 64.4475 109.654 68.8388 106.881C73.2301 104.108 77.1003 100.307 80.2151 95.7091C83.3299 91.1112 85.6243 85.8119 86.9592 80.1323C88.2942 74.4526 88.6419 68.511 87.9814 62.6675C87.3208 56.8239 85.6657 51.2001 83.1163 46.1368ZM98.4485 43.5671H97.7606C97.7444 42.7137 97.6918 42.2007 97.6149 42.0233C97.5745 41.9322 97.4693 41.8747 97.3034 41.8316C96.6358 41.723 95.9619 41.6781 95.2882 41.6973C95.1587 41.6973 94.9281 41.6973 94.6003 41.7069V42.8432C94.6003 44.454 94.6165 45.5855 94.6489 46.2375C94.6812 46.8895 94.7257 47.2683 94.7824 47.3737C94.8229 47.4505 94.8957 47.508 94.9969 47.5511C95.098 47.5943 95.5512 47.6518 96.3484 47.7189V48.5244L92.9696 48.4525C92.4799 48.4525 91.7071 48.4764 90.6509 48.5244V47.6758C91.3105 47.6614 91.6949 47.6326 91.7961 47.5847C91.8462 47.561 91.8906 47.5231 91.9256 47.4744C91.996 47.3086 92.0373 47.1276 92.047 46.9423C92.0632 46.7888 92.0874 46.295 92.1158 45.4656C92.1441 44.641 92.1603 44.0465 92.1603 43.6869V39.4584L92.0793 36.601C92.0807 36.2274 92.0495 35.8547 91.9863 35.4887C91.9701 35.412 91.9418 35.3593 91.9053 35.3209C91.8689 35.2826 91.788 35.2442 91.6625 35.2154C91.3274 35.1559 90.9896 35.1191 90.6509 35.1052V34.247L93.7101 34.3093L97.8537 34.2278C98.4364 34.2278 98.9827 34.2614 99.5006 34.3285L99.5775 34.4723C99.5128 34.8607 99.4602 35.3545 99.4116 35.9538C99.363 36.5531 99.3388 37.0756 99.3347 37.5263H98.6266C98.6203 37.1583 98.6055 36.7906 98.5821 36.4236C98.5843 36.2427 98.5666 36.0622 98.5295 35.8866C98.523 35.8646 98.5129 35.8443 98.4997 35.827C98.4865 35.8097 98.4705 35.7957 98.4526 35.786C98.2258 35.6579 97.9822 35.5768 97.7323 35.5463C97.295 35.4616 96.8522 35.4231 96.4091 35.4312C95.834 35.4412 95.2592 35.4683 94.6853 35.5127C94.6057 36.7392 94.5746 37.9695 94.5922 39.1995V40.6282C95.3287 40.657 95.8223 40.6713 96.0813 40.6713C96.8299 40.6713 97.2993 40.6282 97.4935 40.5515C97.5704 40.5227 97.623 40.446 97.6595 40.3166C97.7329 39.9346 97.7642 39.543 97.7525 39.1516H98.5011C98.4688 40.2878 98.4485 41.7692 98.4485 43.5671Z" fill="black"/>
<path d="M104.186 46.7506C103.951 46.9198 103.681 47.0109 103.405 47.0142C103.268 47.0206 103.131 46.9918 103.004 46.9298C102.877 46.8677 102.763 46.7739 102.669 46.6547C102.47 46.3722 102.37 46.0102 102.39 45.6431C102.39 45.2547 102.467 44.9383 102.624 44.6794C102.778 44.4253 103.057 44.2096 103.466 44.037C103.875 43.8644 104.316 43.7158 104.805 43.5911V46.0746C104.648 46.356 104.436 46.588 104.186 46.7506Z" fill="white"/>
<path d="M115.274 46.9423L115.436 47.1772L115.055 48.1697C114.562 48.4621 114.161 48.6539 113.854 48.745C113.546 48.8361 113.178 48.8792 112.749 48.8792C111.806 48.8792 111.041 48.6635 110.459 48.2272C109.876 47.7909 109.427 47.1677 109.123 46.3574C108.881 45.6305 108.769 44.8516 108.796 44.0705C108.796 43.3562 108.856 42.7713 108.97 42.3158C109.071 41.8821 109.237 41.4731 109.459 41.1077C109.622 40.8553 109.817 40.6353 110.038 40.4557L111.365 39.4632C111.81 39.1276 112.122 38.9215 112.288 38.8496C112.636 38.7157 113.002 38.6541 113.368 38.6674C114.105 38.6674 114.74 38.8112 115.282 39.0989L115.367 39.2715L115.153 40.9351C115.116 41.4042 115.088 41.8741 115.068 42.3446H114.396C114.378 41.8926 114.335 41.4425 114.266 40.9974C114.128 40.7509 113.935 40.5549 113.708 40.4317C113.416 40.2767 113.098 40.2014 112.777 40.2111C112.415 40.1928 112.055 40.2923 111.737 40.4988C111.478 40.6906 111.288 41.007 111.167 41.4577C111.045 41.9083 110.989 42.4549 110.989 43.0925C110.989 43.9507 111.11 44.7178 111.357 45.3938C111.604 46.0698 111.932 46.5684 112.336 46.8848C112.741 47.2012 113.239 47.3642 113.829 47.3642C114.333 47.3674 114.829 47.2224 115.274 46.9423ZM118.455 33.7437C118.823 33.7437 119.13 33.8971 119.389 34.2039C119.513 34.3475 119.611 34.5192 119.677 34.7087C119.743 34.8982 119.776 35.1016 119.774 35.3066C119.778 35.5127 119.746 35.7176 119.68 35.9082C119.614 36.0989 119.515 36.2712 119.389 36.4141C119.269 36.563 119.123 36.6808 118.963 36.7601C118.802 36.8393 118.629 36.8782 118.455 36.8743C118.281 36.8781 118.109 36.8391 117.948 36.7599C117.788 36.6807 117.644 36.5629 117.524 36.4141C117.398 36.271 117.299 36.0989 117.232 35.9083C117.165 35.7178 117.132 35.5129 117.135 35.3066C117.135 34.8751 117.261 34.5107 117.52 34.2039C117.64 34.0549 117.786 33.9371 117.947 33.8579C118.107 33.7787 118.28 33.7398 118.455 33.7437ZM116.091 48.5244V47.7717C116.735 47.7142 117.103 47.6567 117.192 47.5943C117.285 47.5272 117.342 47.4074 117.366 47.23C117.423 46.856 117.451 45.8972 117.451 44.339C117.451 42.2104 117.427 41.0022 117.374 40.705C117.35 40.5707 117.313 40.4796 117.261 40.4365C117.148 40.3502 116.759 40.3022 116.091 40.2974V39.5208C116.957 39.4153 117.613 39.2954 118.054 39.1756C118.495 39.0557 118.981 38.8688 119.503 38.6147L119.709 38.7441C119.64 39.8084 119.608 40.8056 119.608 41.7357V45.2116C119.608 46.3958 119.628 47.0957 119.677 47.3115C119.701 47.4313 119.745 47.5128 119.814 47.556C119.968 47.6471 120.344 47.6998 120.943 47.7286V48.5244C119.326 48.4732 117.708 48.4732 116.091 48.5244ZM126.378 47.7094V48.5244C125.661 48.4717 124.909 48.4429 124.128 48.4429C123.347 48.4429 122.465 48.4717 121.489 48.5244V47.719C122.036 47.6998 122.368 47.6711 122.481 47.6375C122.554 47.6195 122.621 47.578 122.675 47.5176C122.72 47.4697 122.748 47.3882 122.764 47.2779C122.805 47.0766 122.833 46.4293 122.849 45.3506C122.865 44.2671 122.873 43.3083 122.873 42.4693V39.1037C122.873 38.0345 122.853 37.0565 122.813 36.1744C122.81 35.8887 122.782 35.6041 122.728 35.3258C122.706 35.2791 122.674 35.2408 122.635 35.2155C122.534 35.1465 122.422 35.1055 122.307 35.0957C122.048 35.0675 121.789 35.0499 121.53 35.0429V34.2854C122.242 34.1943 122.809 34.0984 123.237 33.9882C123.816 33.8345 124.388 33.6505 124.953 33.4368L125.131 33.5567L125.062 35.6182C125.034 36.7736 125.018 38.1928 125.01 39.8755V42.4932C125.01 43.4761 125.014 44.2144 125.026 44.7082C125.046 45.9259 125.067 46.6595 125.079 46.9183C125.076 47.0827 125.096 47.2464 125.139 47.4026C125.156 47.4539 125.185 47.4976 125.224 47.5272C125.305 47.5884 125.396 47.6262 125.491 47.6375C125.548 47.6471 125.839 47.6758 126.378 47.7094ZM129.493 33.7437C129.862 33.7437 130.169 33.8971 130.428 34.2039C130.552 34.3475 130.649 34.5192 130.715 34.7087C130.782 34.8982 130.815 35.1016 130.813 35.3066C130.816 35.5125 130.783 35.717 130.717 35.9074C130.651 36.0979 130.553 36.2703 130.428 36.4141C130.308 36.563 130.162 36.6808 130.001 36.7601C129.841 36.8393 129.668 36.8782 129.493 36.8743C129.32 36.8784 129.147 36.8395 128.987 36.7603C128.827 36.6811 128.682 36.5632 128.563 36.4141C128.437 36.271 128.338 36.0989 128.271 35.9083C128.204 35.7178 128.171 35.5129 128.174 35.3066C128.174 34.8751 128.304 34.5107 128.559 34.2039C128.679 34.0549 128.825 33.9371 128.985 33.8579C129.146 33.7787 129.319 33.7398 129.493 33.7437ZM127.13 48.5244V47.7717C127.774 47.7142 128.142 47.6567 128.231 47.5943C128.324 47.5272 128.381 47.4074 128.401 47.23C128.457 46.856 128.486 45.8972 128.486 44.339C128.486 42.2104 128.462 41.0022 128.405 40.705C128.385 40.5707 128.344 40.4796 128.296 40.4365C128.19 40.3502 127.798 40.3022 127.13 40.2974V39.5208C127.996 39.4153 128.652 39.2954 129.093 39.1756C129.534 39.0557 130.019 38.864 130.545 38.6147L130.752 38.7441C130.683 39.8084 130.651 40.8056 130.651 41.7357V45.2116C130.651 46.3958 130.675 47.0957 130.719 47.3115C130.74 47.4313 130.788 47.5128 130.857 47.556C131.015 47.6471 131.391 47.6998 131.986 47.7286V48.5244C130.368 48.4731 128.749 48.4731 127.13 48.5244ZM132.451 40.7577V40.2974L133.224 39.7173C133.348 39.6189 133.469 39.5166 133.588 39.4105V38.0441C133.588 37.5503 133.564 36.9462 133.516 36.2271C134.074 36.0066 134.438 35.8627 134.604 35.786L135.701 35.1819L135.923 35.3881L135.838 36.4524L135.778 37.627L135.701 39.4105H135.984C136.745 39.4105 137.323 39.3769 137.716 39.3098L137.57 40.6858C137.507 40.6987 137.444 40.7051 137.38 40.705L136.534 40.6858H135.697V44.0945C135.697 45.1445 135.705 45.7629 135.721 45.9547C135.725 46.0957 135.752 46.2344 135.801 46.3628C135.851 46.4912 135.921 46.6067 136.008 46.7026C136.178 46.8848 136.425 46.9759 136.745 46.9759C136.939 46.9807 137.097 46.9759 137.214 46.9615C137.331 46.9471 137.481 46.9136 137.663 46.8656L137.801 47.2827L136.83 48.4573C136.638 48.5595 136.437 48.6367 136.231 48.6874C136.053 48.7262 135.873 48.7455 135.693 48.745C135.122 48.7845 134.56 48.5671 134.119 48.1361C133.934 47.9501 133.786 47.7176 133.687 47.4555C133.587 47.1934 133.539 46.9084 133.544 46.6211L133.58 43.2507V40.7241H133.346C133.042 40.7241 132.739 40.7385 132.451 40.7577ZM138.137 53.731C138.207 53.386 138.27 53.0392 138.327 52.6907L138.456 51.6599L138.679 51.612C138.828 51.7888 138.992 51.9463 139.169 52.0818C139.397 52.1982 139.644 52.2569 139.893 52.2544C140.195 52.2531 140.487 52.1258 140.718 51.8948C140.969 51.6503 141.253 51.1229 141.564 50.3031L141.908 49.3203L139.116 40.8344C138.95 40.3358 138.792 40.0194 138.643 39.9043C138.493 39.7845 138.21 39.7269 137.793 39.7365V38.9311C139.341 38.9831 140.89 38.9831 142.438 38.9311V39.7365H142.24C141.653 39.7269 141.37 39.8612 141.37 40.144C141.37 40.2639 141.398 40.4173 141.455 40.5947L141.876 41.9707L143.134 45.8636L143.895 43.7445C144.635 41.6446 145.008 40.4365 145.008 40.1057C145.008 39.9475 144.927 39.8708 144.749 39.818C144.475 39.7623 144.197 39.7351 143.919 39.7365V38.9311C145.014 38.9769 146.11 38.9769 147.205 38.9311V39.7365H147.067C146.917 39.73 146.768 39.7645 146.63 39.8372C146.54 39.8788 146.46 39.9483 146.4 40.0386C146.215 40.3982 146.053 40.7731 145.914 41.1604C145.209 42.965 144.528 44.7822 143.871 46.6115L142.483 50.6195C142.058 51.8373 141.605 52.7098 141.131 53.2228C140.66 53.744 140.036 54.0262 139.391 54.0091C138.962 54.0163 138.535 53.9218 138.137 53.731ZM160.401 43.5671H159.713C159.696 42.7138 159.644 42.2008 159.563 42.0234C159.522 41.9323 159.421 41.8748 159.255 41.8316C158.586 41.7251 157.911 41.6818 157.236 41.7022C157.103 41.7022 156.876 41.7022 156.548 41.7118V42.8432C156.548 44.4541 156.564 45.5855 156.597 46.2376C156.629 46.8896 156.674 47.2683 156.73 47.3738C156.771 47.4505 156.84 47.508 156.945 47.5512C157.046 47.5943 157.499 47.6519 158.296 47.719V48.5244L154.922 48.4525C154.432 48.4525 153.659 48.4765 152.603 48.5244V47.6758C152.986 47.6905 153.37 47.66 153.748 47.5848C153.798 47.561 153.843 47.5232 153.878 47.4745C153.95 47.3095 153.991 47.128 153.999 46.9423C154.015 46.7889 154.039 46.2951 154.068 45.4657C154.096 44.6411 154.112 44.0466 154.112 43.687V39.4584L154.035 36.6011C154.037 36.2275 154.006 35.8548 153.942 35.4888C153.931 35.4242 153.902 35.3655 153.861 35.321C153.788 35.2647 153.705 35.2287 153.619 35.2155C153.283 35.156 152.946 35.1191 152.607 35.1052V34.2471L155.666 34.3094L159.81 34.2279C160.392 34.2279 160.939 34.2614 161.457 34.3286L161.534 34.4724C161.459 34.9628 161.403 35.4572 161.368 35.9538C161.323 36.4765 161.298 37.0011 161.291 37.5264H160.583C160.576 37.1585 160.563 36.7908 160.542 36.4237C160.544 36.2427 160.527 36.0622 160.49 35.8867C160.473 35.8388 160.449 35.8004 160.413 35.786C160.186 35.6587 159.942 35.5777 159.692 35.5463C159.255 35.4617 158.812 35.4232 158.369 35.4312C157.794 35.4412 157.219 35.4684 156.645 35.5128C156.566 36.7393 156.535 37.9696 156.552 39.1996V40.6283C157.289 40.657 157.787 40.6714 158.045 40.6714C158.79 40.6714 159.263 40.6283 159.458 40.5515C159.535 40.5228 159.587 40.4461 159.624 40.3166C159.697 39.9347 159.728 39.5431 159.717 39.1516H160.465C160.421 40.2879 160.401 41.7693 160.401 43.5671Z" fill="black"/>
<path d="M164.843 41.085C164.985 40.5816 165.187 40.2172 165.446 40.0015C165.705 39.7857 166.005 39.6802 166.353 39.6802C166.753 39.6802 167.097 39.8289 167.381 40.1213C167.664 40.4186 167.882 40.9315 168.028 41.6795C168.174 42.4226 168.246 43.3191 168.246 44.3595C168.246 45.8457 168.064 46.8477 167.696 47.3607C167.559 47.5524 167.387 47.7044 167.193 47.8049C166.998 47.9055 166.787 47.952 166.575 47.9408C166.326 47.9531 166.077 47.8895 165.854 47.7561C165.631 47.6227 165.441 47.4238 165.301 47.1785C164.851 46.4114 164.629 45.117 164.629 43.3047C164.629 42.3363 164.698 41.5932 164.843 41.085ZM174.3 41.085C174.442 40.5816 174.644 40.2172 174.903 40.0015C175.162 39.7857 175.461 39.6802 175.809 39.6802C176.21 39.6802 176.554 39.8289 176.837 40.1213C177.12 40.4186 177.339 40.9315 177.485 41.6795C177.634 42.4226 177.703 43.3191 177.703 44.3595C177.703 45.8457 177.521 46.8477 177.153 47.3607C177.016 47.5524 176.844 47.7044 176.649 47.8049C176.455 47.9055 176.244 47.952 176.032 47.9408C175.782 47.9531 175.534 47.8895 175.311 47.7561C175.088 47.6227 174.897 47.4238 174.757 47.1785C174.308 46.4114 174.086 45.117 174.086 43.3047C174.086 42.3363 174.154 41.5932 174.3 41.085ZM187.31 45.6635C187.249 45.932 187.059 46.2053 186.739 46.4929C186.419 46.7806 186.051 46.9196 185.622 46.9196C185.365 46.9303 185.109 46.8686 184.875 46.7394C184.641 46.6102 184.437 46.4173 184.279 46.1765C183.834 45.5005 183.607 44.5464 183.607 43.3047C183.607 42.6383 183.668 42.0486 183.793 41.5404C183.874 41.1109 184.07 40.724 184.352 40.4377C184.634 40.1976 184.976 40.0776 185.323 40.0973C185.776 40.0973 186.193 40.222 186.573 40.4809C186.775 40.6199 187.03 40.9124 187.346 41.363L187.399 43.2424C187.403 44.5848 187.37 45.395 187.31 45.6635Z" fill="white"/>
<path d="M191.712 47.0286L191.765 45.3123H192.453C192.481 46.0746 192.513 46.5588 192.538 46.7554C192.768 47.1026 193.059 47.3858 193.392 47.5848C193.725 47.7715 194.091 47.8634 194.46 47.8532C195.002 47.8532 195.415 47.7046 195.702 47.393C195.838 47.2565 195.948 47.0861 196.022 46.8938C196.096 46.7015 196.133 46.4921 196.131 46.2807C196.131 45.9931 196.082 45.7581 195.989 45.5712C195.896 45.3842 195.706 45.2116 195.415 45.0582C194.992 44.9003 194.563 44.7707 194.128 44.6698C193.631 44.5613 193.147 44.3793 192.687 44.1281C192.363 43.9334 192.096 43.6255 191.923 43.2459C191.734 42.8242 191.639 42.3522 191.648 41.8748C191.648 40.9351 191.947 40.1536 192.546 39.5304C193.145 38.9071 194.003 38.6003 195.123 38.6003C196.05 38.6003 196.835 38.7873 197.466 39.1708L197.491 39.2715C197.458 39.5064 197.43 39.7509 197.414 39.9906C197.398 40.2399 197.369 40.8152 197.333 41.7262L196.665 41.7166C196.658 41.5902 196.65 41.464 196.641 41.3378C196.624 41.0398 196.59 40.7435 196.54 40.4509C196.184 39.9043 195.662 39.6358 194.962 39.6358C194.472 39.6358 194.096 39.7653 193.829 40.0242C193.562 40.2831 193.428 40.5899 193.428 40.9495C193.428 41.3186 193.489 41.5919 193.61 41.7693C193.731 41.9467 193.91 42.0761 194.144 42.1672C194.379 42.2583 194.816 42.3686 195.451 42.5076C196.087 42.6467 196.511 42.7665 196.73 42.8576C197.046 43.0014 197.3 43.1788 197.491 43.3994C197.681 43.6151 197.827 43.8884 197.924 44.2096C198.021 44.5308 198.077 44.8904 198.077 45.2787C198.077 46.2903 197.746 47.1485 197.082 47.8389C196.418 48.5292 195.484 48.8792 194.286 48.8792C193.881 48.8792 193.493 48.8361 193.112 48.7546C192.732 48.6731 192.271 48.5149 191.724 48.2895L191.631 48.1361L191.712 47.0286Z" fill="black"/>
</svg>
