<svg width="209" height="128" viewBox="0 0 209 128" fill="none" xmlns="http://www.w3.org/2000/svg">
<path d="M132.593 105.684C127.763 107.69 125.089 110.399 125.103 113.11C125.126 117.129 131.039 121 144.739 120.975C148.139 120.962 151.138 120.773 153.863 120.519C154.659 120.448 155.439 120.369 156.179 120.285L157.772 116.544C155.117 117.032 151.763 117.435 149.074 117.442C141.778 117.454 136.887 115.076 136.876 111.957C136.864 110.295 138.107 108.835 140.354 107.767C142.761 106.623 146.308 105.931 150.745 105.931C154.258 105.931 156.313 106.465 157.714 107.227C157.991 107.373 158.248 107.53 158.482 107.698H159.625L161.861 103.283C159.557 102.865 156.141 102.513 152.538 102.491C144.148 102.429 137.331 103.715 132.593 105.684M122.984 106.297C123.969 106.297 124.787 106.494 125.335 106.752C125.804 106.971 126.086 107.232 126.086 107.457H127.21L129.391 102.663H99.7848L99.3521 103.601L99.2495 103.829C99.2495 103.829 102.491 104.029 101.498 105.81L94.1072 120.572L106.677 120.585H108.882L109.441 119.318C109.441 119.318 106.677 118.951 107.399 117.548C107.434 117.46 108.475 115.361 109.096 114.1C109.374 113.557 109.571 113.165 109.571 113.165L116.337 113.163C117.444 113.163 118.292 113.274 118.947 113.414C120.302 113.699 120.823 114.132 120.823 114.132L122.786 109.745H111.38L112.612 107.239L113.075 106.305L122.984 106.297ZM87.0112 117.937C86.1351 117.421 78.5286 110.907 78.5286 110.907L91.9806 104.988L92.4267 104.791C92.9413 104.553 93.4993 104.347 94.0913 104.176C95.5206 103.772 96.4419 103.83 96.4419 103.83L96.982 102.65L79.6909 102.664L79.2607 103.599L79.1585 103.83C80.3333 103.875 81.9735 104.452 80.6329 105.14C80.4575 105.223 66.7361 110.987 66.7361 110.987L66.8432 110.784L69.6964 105.102C70.2993 103.967 72.5172 103.83 72.5172 103.83L73.0594 102.661L56.5523 102.664L56.1282 103.598L56.0198 103.829C56.8093 103.941 59.0637 104.182 58.2825 105.81C52.7733 116.756 53.4032 115.673 53.0306 116.269C51.7972 118.864 49.9473 119.221 48.8348 119.287C48.5922 119.3 48.3828 119.3 48.2306 119.305L48.0038 119.795L47.6541 120.571H64.9192L65.4957 119.286C65.4957 119.286 62.756 118.988 63.2778 117.901C63.5433 117.355 64.2354 115.97 64.8463 114.747C65.4383 113.561 65.9635 112.521 65.9635 112.521C68.9576 115.16 69.646 115.486 73.2605 118.212C76.586 120.734 80.1407 120.616 88.7222 120.584C89.4216 120.581 90.1454 120.578 90.9254 120.578L91.496 119.317C89.3203 119.324 87.88 118.451 87.0112 117.937M166.607 102.972C166.178 102.741 165.669 102.626 165.059 102.626C164.461 102.626 163.952 102.741 163.522 102.972C163.103 103.204 162.889 103.488 162.889 103.819C162.889 104.152 163.103 104.435 163.522 104.671C163.941 104.903 164.46 105.023 165.059 105.023C165.669 105.023 166.178 104.902 166.607 104.671C167.032 104.435 167.245 104.152 167.245 103.819C167.251 103.487 167.03 103.204 166.607 102.972ZM166.393 104.553C166.031 104.756 165.58 104.859 165.06 104.859C164.541 104.859 164.1 104.757 163.739 104.553C163.377 104.353 163.191 104.107 163.191 103.819C163.191 103.536 163.377 103.291 163.739 103.09C164.106 102.887 164.541 102.785 165.06 102.785C165.58 102.785 166.02 102.887 166.393 103.09C166.755 103.291 166.936 103.536 166.936 103.819C166.936 104.107 166.755 104.353 166.393 104.553Z" fill="black"/>
<path d="M166.048 103.535C166.048 103.37 165.919 103.259 165.68 103.202C165.522 103.173 165.318 103.158 165.026 103.158H164.189V104.473H164.602V103.953H164.933C165.163 103.953 165.316 103.969 165.415 103.997C165.556 104.048 165.635 104.148 165.629 104.3V104.401L165.647 104.446V104.461C165.647 104.461 165.647 104.467 165.66 104.474H166.048L166.042 104.455C166.019 104.446 166.019 104.424 166.009 104.388V104.194C166.009 104.127 165.964 104.054 165.875 103.987C165.796 103.92 165.647 103.875 165.468 103.859C165.615 103.847 165.728 103.829 165.812 103.796C165.963 103.739 166.048 103.654 166.048 103.535ZM165.383 103.766C165.299 103.784 165.167 103.79 164.994 103.79H164.605V103.317H164.961C165.198 103.314 165.373 103.332 165.481 103.365C165.583 103.396 165.639 103.463 165.639 103.559C165.636 103.657 165.551 103.727 165.383 103.766" fill="black"/>
<path d="M147.883 44.1941C147.532 47.0409 144.71 49.8063 144.028 50.5107C142.513 52.075 142 53.1773 141.702 53.7008C141.407 54.22 140.695 54.0672 140.531 53.9724C140.369 53.8708 140.244 53.4432 140.143 53.374C140.048 53.304 139.746 53.312 139.45 53.754C139.145 54.1904 138.359 54.7707 137.9 55.0868C137.603 55.2934 137.565 55.6137 137.56 55.8658C137.56 56.3516 137.571 58.2238 136.914 60.3001C135.755 63.9987 132.909 66.1737 130.914 67.2731C126.217 69.8629 122.182 70.7954 121.693 70.9344C121.059 71.1143 120.103 71.0077 119.791 70.9271C119.475 70.8495 119.231 70.6441 118.685 70.3576C118.123 70.074 117.929 70.5044 117.907 70.6139C117.885 70.7176 118.088 71.1245 118.168 71.513C118.308 72.2416 117.389 73.0408 116.476 73.6637C115.904 74.0525 115.31 74.4614 114.815 74.8956C114.203 75.4339 113.75 76.0159 113.731 76.6652C113.695 76.7645 113.683 76.8387 113.515 76.8598C112.352 77.0037 111.297 76.2404 110.392 75.8078C109.783 75.5098 109.183 75.2057 108.594 74.8956L108.59 74.8942C107.947 74.5536 107.334 74.2064 106.763 73.84C106.724 73.8157 106.687 73.7911 106.65 73.7667C106.426 73.6197 106.208 73.4697 105.997 73.3167C105.934 73.2705 105.87 73.2245 105.81 73.1784C105.564 72.9952 105.331 72.8064 105.111 72.6125C102.951 70.7032 103.486 69.5282 104.777 67.3582C105.68 65.818 105.1 64.2687 104.95 64.0434C104.797 63.8193 105.076 63.6201 105.649 63.8224C106.22 64.0238 106.689 64.5531 107.203 65.014C107.73 65.4752 107.937 65.1911 108.058 64.9115C108.351 64.2363 108.174 63.6624 108.108 63.3544C108.063 63.1714 107.858 62.7436 107.225 62.6244C106.381 62.4635 105.533 62.3578 105.12 62.1398C104.916 62.0375 104.719 61.8453 104.99 61.7394C105.494 61.538 106.212 61.2728 106.851 61.2052C107.716 61.1073 108.573 60.9267 109.633 61.0121C116.718 61.5524 118.854 60.7927 121.72 60.3772C122.283 60.2964 122.614 60.2613 123.055 60.3729C123.492 60.4821 124.669 60.8299 124.91 61.1549C125.152 61.4782 124.899 62.7436 125.276 63.6978C125.659 64.6545 126.909 63.7841 127.218 63.4069C127.531 63.0312 127.854 62.1039 127.918 61.8688C127.987 61.6355 128.351 60.6507 129.008 60.3576C130.306 59.7768 130.762 59.0135 130.971 58.7161C131.186 58.4174 131.526 57.4966 131.465 56.1509C131.401 54.8088 130.953 54.6632 130.35 54.3746C129.757 54.0866 129.041 54.1427 127.523 53.3935C126.169 52.7244 125.054 51.6439 124.075 50.9635C123.091 50.2845 121.464 49.5561 119.606 49.3105C117.754 49.0692 118.627 50.0661 118.729 50.3256C118.804 50.5076 118.976 51.057 118.359 51.3248C117.754 51.5935 114.242 52.9009 111.312 52.6468C106.63 52.2428 104.974 50.4105 104.738 49.7237C104.481 48.9905 105.952 47.4016 106.209 46.2073C106.316 45.6817 106.367 44.6687 106.389 43.9624C106.415 43.2552 107.317 42.3634 107.688 42.1639C108.052 41.9615 108.948 41.8325 110.025 41.7823C111.104 41.7296 112.258 42.1019 112.453 42.5986C113.146 44.3232 114.276 44.7593 114.656 44.899C115.043 45.0389 115.767 44.7593 116.048 44.6586C116.333 44.5584 117.058 44.1646 116.829 43.953C116.483 43.6247 116.292 43.4275 116.217 43.2351C116.085 42.9082 116.833 42.9581 117.002 43.0134C119.117 43.6958 120.165 43.8788 122.339 44.0033C124.507 44.1223 128.063 43.5894 128.486 43.6145C128.824 43.6355 129.462 43.7974 129.671 44.0062C129.842 44.187 130.158 44.5979 130.473 44.6707C130.789 44.7364 131.555 44.7624 131.954 44.7997C132.503 44.85 133.484 44.817 133.319 45.3626C132.897 46.8252 130.552 47.584 130.337 47.6595C130.3 47.6739 130.288 47.6946 130.259 47.7098C130.274 47.7018 130.278 47.6906 130.295 47.681C129.905 47.8006 129.429 47.8977 128.769 47.9611C128.282 48.0079 127.979 48.0686 127.824 48.1426C127.509 48.296 128.076 48.6049 128.584 48.8272C128.94 48.9877 130.146 48.8489 131.078 48.6875H131.077C131.112 48.6797 131.141 48.6834 131.175 48.6763C133.121 48.2152 134.027 47.5753 135.017 46.7602C136.009 45.9487 137.124 43.1082 137.282 42.6385C137.437 42.1711 137.785 41.8991 138.265 41.7383C138.737 41.5778 141.011 40.9961 141.324 40.9808C141.627 40.9645 141.973 40.973 142.212 41.4245C142.448 41.8802 142.546 44.5844 142.598 45.0013C142.65 45.4457 143.072 45.4242 143.299 45.3554C143.796 45.208 144.171 45.0129 144.67 44.6659C145.164 44.3175 144.992 43.7795 144.652 43.5074C144.317 43.2373 143.779 42.8018 144.142 42.4376C144.966 41.606 146.23 41.7462 146.57 41.801C146.9 41.8556 148.119 42.2702 147.883 44.1941ZM118.252 59.2146C117.405 59.3813 114.959 59.6874 113.777 59.7255C112.581 59.7624 108.795 59.8999 108.161 59.8839C107.379 59.8597 106.326 59.6558 105.469 59.2324C105.296 59.1475 105.109 58.8535 105.807 58.8464C107.107 58.8343 109.3 58.4611 116.849 58.8055C117.656 58.8409 118.039 58.8608 118.23 58.871C118.427 58.8804 119.096 59.0523 118.252 59.2144M100.567 57.0416C97.1617 57.4238 96.4058 56.7332 96.1562 56.5251C95.9164 56.3228 96.3195 56.1659 96.682 56.1034C97.5044 55.963 98.6435 55.6117 99.234 55.3685C99.8284 55.1307 101.078 54.2379 101.904 53.9507C102.294 53.8138 104.268 53.6028 105.595 54.0753C107.181 54.6376 109.793 54.875 111.435 54.8773C113.073 54.8773 113.847 54.2762 114.289 53.9219C114.737 53.567 115.629 53.4869 116.102 53.4177C117.405 53.2343 119.272 52.4242 119.465 52.3407C119.663 52.2571 120.205 52.1578 120.945 52.4759C122.301 53.0621 122.914 53.7411 124.079 54.6988C125.242 55.6463 126.828 55.9011 127.305 55.9507C127.776 56.0027 127.995 56.3259 127.999 56.4122C128.003 56.4963 127.535 56.7544 127.212 56.8523C126.884 56.9553 126.67 57.1567 124.029 57.0019C110.795 56.2145 104.658 56.575 100.567 57.0416ZM98.6502 67.0414C95.9811 67.0838 89.28 65.4603 86.2452 59.0194C85.4592 57.3624 87.1256 55.8853 88.3294 55.6548C89.0413 55.5151 89.4145 55.4706 89.6532 55.4539C89.8997 55.4373 91.1158 55.4423 91.0712 56.1819C91.0309 56.78 91.9439 61.774 94.3619 63.5818C94.9631 64.0311 95.516 64.047 95.7922 63.6517C96.0454 63.2853 96.4678 62.81 96.6039 62.6299C96.7024 62.5004 97.4787 62.1382 97.739 62.6892C98.2914 63.8596 98.9401 65.3889 99.4589 66.0177C99.9578 66.633 99.652 67.0256 98.6502 67.0414ZM84.064 48.5099C84.3567 48.622 85.2044 48.9877 86.1726 49.173C86.76 49.2845 87.1619 49.1532 87.356 48.9252C87.5571 48.6991 88.092 48.257 87.2779 48.0074C86.4662 47.7552 84.122 47.1541 82.7363 45.1531C82.5368 44.8695 82.8495 44.6643 83.0436 44.5997C83.2389 44.5328 83.9346 44.3591 84.2676 44.2769C84.6045 44.1955 85.0182 44.2366 85.4082 44.4354C85.7924 44.6298 86.6188 45.0588 87.36 45.0754C88.0411 45.0919 88.1527 44.943 88.2904 44.8572C88.8634 44.5102 90.5051 43.2171 93.9118 43.4419C95.3149 43.5339 96.6118 43.7017 97.0823 43.7209C97.5596 43.7384 99.234 43.7781 100.299 43.4835C101.352 43.1956 101.698 43.485 101.048 43.8428C100.396 44.1957 99.9361 44.3771 100.466 44.7853C100.863 45.0884 101.048 45.2079 101.189 45.2902L101.158 45.4313C101.158 45.4363 101.14 45.5103 101.098 45.6313C100.903 46.1906 100.174 46.7659 99.5388 47.0886C98.6865 47.5197 97.2026 47.7668 96.6429 47.8609C95.9298 47.9835 94.78 48.0344 94.6207 48.0381C94.5588 48.0424 94.3473 48.0424 94.2179 48.0424L93.9753 48.0483C93.9091 48.0518 93.8188 48.0577 93.6976 48.0604L93.5939 48.0627L93.3995 48.0604C93.3226 48.0604 93.2338 48.0627 93.1407 48.0748C92.7459 48.1275 92.5121 48.301 92.5313 48.5341C92.5475 48.6458 92.643 48.7626 92.7459 48.874C92.8481 49.0345 93.3577 49.3694 94.2783 49.3694C94.3363 49.3694 94.3943 49.368 94.459 49.3637C95.5389 49.3096 96.2288 49.2449 96.8977 49.1792C97.2511 49.1446 97.7146 49.0836 98.111 49.0215C97.9209 49.1383 97.7335 49.2593 97.5746 49.3973C96.678 50.1599 96.6957 50.4371 96.5499 50.7265C96.4031 51.0191 95.9594 51.1054 95.4635 51.1903C94.9619 51.2744 93.0974 51.7122 91.6037 52.376C90.117 53.0414 88.3874 53.0355 87.0515 52.2197C85.7143 51.4056 84.036 50.2097 83.4546 48.8537C83.2661 48.4204 83.7647 48.3939 84.064 48.5099ZM82.2548 41.2985C82.4196 41.0046 83.2108 40.2522 84.5401 40.1199C84.7125 40.101 85.3716 40.035 85.923 39.9995C86.5675 39.9636 87.2522 39.9326 87.6013 39.9249C88.5424 39.9033 88.6449 40.3019 88.0072 40.5071C87.5839 40.6446 86.93 40.8144 86.3328 41.0132C85.4351 41.3134 84.5547 41.6622 83.8849 41.8903C83.068 42.1745 81.9194 41.9026 82.2548 41.2985ZM96.9087 41.541C96.0741 41.463 95.1858 41.3422 93.5774 41.541C91.7791 41.7629 90.5564 42.1343 89.6883 42.3432C88.8 42.5643 87.9007 42.6174 87.6041 42.6101C87.3172 42.5995 86.2764 42.4489 87.1067 42.0853C87.3355 41.9868 87.8131 41.9341 88.5857 41.7067C89.1341 41.541 89.5415 41.423 90.1734 41.202C91.3196 40.8001 93.5597 40.2688 94.4806 40.2731C95.148 40.2783 96.3097 40.433 96.9301 40.7966C97.5758 41.1753 97.7525 41.6181 96.9087 41.541ZM103.071 51.0986C103.28 51.3068 103.348 51.6567 103.288 51.7999C103.227 51.977 102.073 52.2084 101.115 51.4366C100.158 50.6681 100.606 49.725 101.175 49.3536C102.08 48.7591 103.459 49.1916 103.26 49.4112C102.569 50.1745 102.877 50.8929 103.071 51.0986ZM131.215 43.1956C130.853 43.2935 129.814 43.1065 129.439 42.9933C128.687 42.7666 128.152 42.6058 127.139 42.14C126.468 41.8357 125.232 41.6195 124.087 41.7211C123.333 41.7859 122.728 41.8469 122.046 41.932C121.376 42.0199 121.323 41.6909 121.525 41.5663C121.725 41.4438 122.903 40.8649 124.315 40.6886C124.617 40.6505 125.192 40.6607 125.485 40.677C126.342 40.729 127.37 41.0365 128.107 41.423C128.846 41.8119 130.018 42.4376 130.825 42.7016C131.21 42.8269 132.065 42.96 131.215 43.1956ZM130.62 41.1328C130.155 40.8982 129.335 40.5231 128.813 40.3733C128.459 40.2731 128.658 40.0277 129.198 40.0263C131.104 40.0147 132.293 40.1003 133.143 40.4841C133.762 40.7637 134.109 41.241 133.805 41.6181C133.453 42.0501 133.143 41.927 132.745 41.896C132.344 41.8644 131.078 41.3668 130.62 41.1328ZM138.72 40.178C138.698 40.2926 138.619 40.574 138.597 40.6824C138.582 40.791 138.312 40.8845 138.062 40.8881C137.816 40.8886 136.14 40.8514 135.876 40.8427C135.62 40.8333 135.384 40.739 135.392 40.6014C135.404 40.4706 135.423 40.1529 135.427 40.0731C135.423 39.9924 135.449 39.8844 135.791 39.8889C135.98 39.8889 137.731 39.9284 138.371 39.9348C138.618 39.9348 138.746 40.0629 138.72 40.178ZM81.8007 37.4149C81.7751 37.0966 81.74 36.5604 81.8679 36.2349C81.9258 36.105 82.0714 35.7849 82.4019 35.6294C82.8736 35.4069 83.4669 35.2181 83.8526 35.0873C84.563 34.8509 84.6087 34.1037 84.757 33.6825C85.1964 32.4663 85.9471 28.5699 91.4648 25.1918C94.2814 23.4695 97.0863 23.5279 100.02 23.4716C102.826 23.4163 105.967 23.8902 107.541 24.2984C108.795 24.6214 109.414 24.8383 109.907 24.6481C110.398 24.4523 111.716 23.8281 112.259 23.6143C112.804 23.3953 112.599 23.0555 112.084 22.8331C111.589 22.6234 106.767 20.0842 99.5708 19.4621C92.5393 18.8503 86.4878 19.7956 84.8971 19.9705C84.5736 20.0043 84.4079 20.0207 84.2285 20.0093C84.0521 19.9992 83.4589 19.8365 83.7567 19.6134C84.0573 19.3699 84.7882 19.0149 85.5159 18.7402C86.2788 18.4547 90.0349 16.9834 93.5237 16.4275C94.1706 16.3267 94.3363 16.2764 94.7489 16.2244C95.2719 16.1533 95.7153 15.564 94.6262 15.4786C93.4843 15.3923 93.0193 15.4309 92.4099 15.4411C91.8008 15.4484 91.5066 15.2777 91.9491 15.0269C92.3977 14.7751 93.2066 14.518 94.6289 14.2192C97.7351 13.5727 103.24 13.0522 105.807 12.9326C109.157 12.782 109.561 12.7879 111.741 12.8751C113.784 12.9555 115.384 13.1552 116.143 13.2248C122.585 13.8343 129.753 15.5483 135.015 18.0474C139.973 20.6573 146.964 24.9088 146.311 34.1037C146.232 35.2038 145.949 35.8128 145.811 36.0778C145.668 36.3477 144.986 36.8081 144.625 36.1988C143.447 34.2066 141.519 31.5686 139.224 29.0293C138.847 28.6117 138.323 28.7377 138.395 29.1454C138.423 29.3152 138.73 31.8437 138.684 32.1884C138.64 32.534 138.127 33.3514 140.076 35.0693C140.88 35.7756 141.593 36.3787 141.79 37.3466C141.996 38.3156 142.041 38.7266 142.025 38.8209C142.004 38.9204 142.143 39.2147 141.317 39.1571C140.495 39.0987 137.396 38.7469 136.056 38.6631C134.705 38.5848 125.322 38.4049 121.781 38.5539C118.235 38.7001 116.26 39.0406 114.252 39.9262C113.765 40.14 113.108 40.3222 112.976 40.3335C112.836 40.3444 112.387 40.3083 111.519 40.2113C110.653 40.1154 109.107 40.1222 108.261 40.261C107.415 40.3978 106.797 40.5375 105.884 40.2524C104.584 39.8433 102.55 38.2789 96.3695 37.9965C90.6065 37.7308 89.2015 37.6761 82.7699 37.8922C82.1874 37.913 81.83 37.7466 81.8007 37.4149ZM80.1544 29.2352C79.6613 29.4546 78.6583 29.9149 78.1661 30.6471C77.6687 31.3865 75.7557 33.9648 75.5064 38.06C75.4795 38.5351 75.6791 39.1859 74.8177 39.3582C74.2892 39.4582 73.8296 39.5495 73.4076 39.6121C72.9788 39.6799 72.6093 39.6792 72.4018 39.3575C71.9017 38.5754 71.7143 37.2327 71.717 36.3773C71.7238 35.5156 72.0338 32.9675 72.4708 31.5929C72.9102 30.2236 72.6093 29.4182 71.8696 28.6895C71.1186 27.9652 70.6521 27.4655 70.4888 27.2286C70.2773 26.9289 70.508 26.7526 71.0955 26.5814C71.3802 26.5004 71.8949 26.5985 72.3142 26.5814C73.1461 26.5518 75.9837 26.2155 78.2039 25.4971C80.4242 24.7814 84.0399 23.3449 86.3636 22.8634C88.6947 22.3781 89.7233 22.1547 92.3034 22.1736C92.755 22.177 93.398 22.3601 92.5597 22.6208C91.7212 22.8833 89.1704 23.1764 85.7466 25.3142C83.6472 26.6218 83.1608 27.43 82.4519 28.0319C81.736 28.6368 81.1617 28.7802 80.1544 29.2352ZM80.3394 40.6649C80.214 40.6683 78.9924 40.6553 78.3309 40.6799C77.9128 40.6886 77.4774 40.7404 77.4868 40.525C77.4911 40.2782 77.4356 39.9528 77.4182 39.8606C77.406 39.7712 77.5097 39.6915 77.701 39.6812C78.2015 39.6575 80.0965 39.6188 80.2719 39.6287C80.4553 39.6395 80.6253 39.6863 80.6521 39.896C80.6766 40.101 80.7101 40.3245 80.7101 40.4135C80.7086 40.5044 80.7168 40.6612 80.3394 40.6649ZM75.5644 45.3117C75.1707 45.115 73.7283 43.6887 73.2282 42.1775C73.1757 42.0199 73.1555 41.6246 73.6517 41.5454C74.0572 41.4878 74.5992 41.3634 74.8754 41.3134C75.1613 41.2661 75.8424 41.215 75.8085 41.7419C75.7707 42.2705 75.7075 42.891 76.4179 44.5147C76.5485 44.8033 76.5674 44.8942 76.593 45.0079C76.6577 45.3361 75.9214 45.4952 75.5644 45.3117ZM150.325 38.9729C150.325 38.9729 156.377 26.9814 138.847 17.5219C138.835 17.5176 138.261 17.2418 137.91 17.0752C137.179 16.7314 136.245 16.3029 135.17 15.8817C132.897 14.9931 131.083 14.3114 127.346 13.3358C126.4 13.0926 122.255 12.0606 118.432 11.5862C117.069 11.4172 114.415 11.0702 111.933 10.9475C111.81 10.9427 111.67 10.9368 111.519 10.9311C111.496 10.9312 111.472 10.9302 111.449 10.9283C111.322 10.9247 111.178 10.921 111.036 10.9167C110.952 10.9139 110.868 10.9122 110.784 10.9115C110.647 10.9071 110.5 10.9045 110.35 10.9009C110.241 10.8987 110.125 10.8987 110.009 10.8973C109.46 10.8848 108.91 10.8819 108.36 10.8886C108.121 10.8886 107.876 10.89 107.626 10.8922C107.45 10.8936 107.278 10.8957 107.096 10.8973C106.922 10.8987 106.739 10.903 106.561 10.9066C106.362 10.9101 106.169 10.9125 105.962 10.9167C105.345 10.9311 104.53 10.9794 103.675 11.0429C102.294 11.1458 100.813 11.289 99.8986 11.3999C98.8782 11.5287 97.5004 11.6776 95.7787 11.9341C95.0674 12.0421 94.3587 12.1559 93.6531 12.2754C93.4535 12.3078 93.2539 12.3402 93.0571 12.3733C92.2842 12.5049 91.5144 12.6422 90.7477 12.7851C90.1844 12.8881 87.7902 13.428 87.2696 13.5524C87.0203 13.6131 86.6755 13.6894 86.3044 13.7679C83.8941 14.1651 84.2001 15.0343 84.2001 15.0343C81.3732 18.7941 72.5556 18.5501 72.5556 18.5501C72.3344 20.136 78.8051 21.6602 78.8051 21.6602C77.6135 22.9606 73.8955 23.9158 69.6573 24.0982C65.2826 24.2867 64.893 26.2767 64.893 26.2767C66.9732 28.0652 69.6182 28.5282 67.2387 37.4701C64.8567 46.4125 78.6946 52.9974 78.6946 52.9974C77.6528 56.9804 82.4141 61.3707 82.4141 61.3707C80.9259 64.6205 86.4839 69.3561 86.4839 69.3561C86.8803 69.6641 90.5427 72.038 97.0164 74.2251C98.0219 74.5673 98.7353 74.7796 99.1113 74.9207C99.133 74.9287 99.1531 74.9373 99.1748 74.9453C99.2126 74.9602 99.2462 74.9748 99.2755 74.9876C99.3093 75.0037 99.3322 75.0164 99.3539 75.0302C99.363 75.0353 99.3795 75.0415 99.3862 75.0469C99.5586 75.1763 99.8028 75.4377 99.1681 75.4736C98.5236 75.5055 96.6863 75.4088 94.6613 75.6847C92.6381 75.9603 92.9128 76.3607 92.8725 77.0009C92.8307 77.5781 92.9128 77.9951 92.8548 78.7683C92.7968 79.5401 92.5475 80.2261 93.1542 80.6007C93.7529 80.9687 94.6357 81.2248 97.1797 81.1415C99.598 81.0643 100.407 81.0146 100.683 81.0299C100.955 81.0415 106.31 80.8792 107.091 80.7368C107.817 80.6007 108.076 80.895 107.592 81.438C106.543 82.6125 102.08 87.2461 93.1944 91.6077C91.7053 92.2594 99.3484 93.3629 99.9526 93.2369C100.56 93.1125 104.841 90.7013 107.403 88.4793C107.541 88.3909 108.771 87.3952 109.753 86.0148C109.911 85.7925 110.217 85.6493 110.312 85.9963C110.38 86.2467 111.287 92.7755 110.688 95.1645C110.385 96.3746 112.305 96.1833 117.372 96.8537C118.624 97.0178 117.897 85.7932 114.908 81.1718C114.907 81.1709 114.908 81.1696 114.908 81.1696C114.883 81.1342 114.871 81.0966 114.87 81.0586C114.87 80.9009 115.075 80.7699 115.345 80.7404C115.345 80.7404 115.472 80.7251 115.544 80.7196C117.263 80.5841 121.234 80.6699 121.911 80.6856C122.577 80.6964 124.361 80.8716 125.322 80.9189C126.271 80.9692 128.424 81.0931 128.375 79.5353C128.365 79.1189 128.363 78.7 128.366 78.3126C128.367 78.2594 128.369 78.2061 128.369 78.1542C128.369 78.0582 128.372 77.9622 128.375 77.8662L128.379 77.7025C128.381 77.65 128.382 77.5968 128.385 77.5457C128.386 77.4984 128.389 77.45 128.39 77.4055C128.394 77.3214 128.397 77.2399 128.404 77.1658C128.404 77.142 128.405 77.121 128.408 77.0989C128.41 77.0432 128.413 76.9905 128.419 76.9434C128.419 76.9188 128.423 76.8949 128.424 76.872C128.428 76.8286 128.433 76.7928 128.437 76.7603C128.439 76.7496 128.44 76.7352 128.44 76.7257C128.447 76.6796 128.455 76.6286 128.457 76.5732C128.482 76.1932 128.351 75.6393 127.012 75.4519C125.474 75.2434 122.825 75.2519 120.378 75.527C120.043 75.5644 119.831 75.5391 119.769 75.4774C119.711 75.4167 119.8 75.3225 120.064 75.224C120.589 75.0229 125.041 73.866 129.067 71.9307C133.495 69.7988 135.612 68.1501 136.971 66.6065C136.971 66.6065 141.397 61.5924 140.394 56.107L141.174 55.5569C141.174 55.5569 144.188 56.1682 145.973 53.6677C147.76 51.1687 159.141 40.4993 150.325 38.9729Z" fill="black"/>
<path d="M125.782 81.3358V81.4441H125.21V82.2433H124.978V81.4441H124.405V81.3359L125.782 81.3358ZM125.988 81.3358H126.318L126.806 82.1031L127.291 81.3359H127.618V82.2433H127.399V81.7077C127.399 81.6893 127.4 81.6587 127.401 81.6158C127.402 81.5727 127.404 81.5268 127.404 81.4779L126.918 82.2433H126.69L126.201 81.4779V81.5056C126.201 81.528 126.202 81.5619 126.204 81.6074C126.207 81.6528 126.207 81.6862 126.207 81.7079V82.2433H125.988L125.988 81.3358Z" fill="black"/>
</svg>
