<svg width="209" height="128" viewBox="0 0 209 128" fill="none" xmlns="http://www.w3.org/2000/svg">
<path fill-rule="evenodd" clip-rule="evenodd" d="M162.014 52.6048H171.048L166.691 49.0671C166.692 49.0671 162.097 52.5913 162.014 52.6048H161.107C161.107 52.6048 155.937 48.7174 156.002 48.7174H155.937V50.9779L149.983 50.4001C149.983 46.7374 149.964 44.1002 149.964 44.1002C149.738 43.8028 149.447 43.6221 149.189 43.3416C148.276 42.6692 147.639 41.3059 147.639 39.7617C147.639 37.5316 148.903 35.7189 150.47 35.7189C151.162 35.7189 152.3 36.5602 152.3 36.5602L161.695 43.5917L172.837 35.0887V44.4634L170.52 46.163L173.14 48.4758C173.465 48.9286 173.562 49.7395 173.562 50.4288C173.562 51.7347 172.855 52.7873 171.962 52.87L171.943 67.4144C171.922 69.0988 171.391 70.4605 170.637 71.6954C169.149 73.3798 166.126 73.0842 164.012 73.0842L163.973 73.1399C163.908 75.6116 162.51 77.5899 160.782 77.5899C159.934 77.5881 159.121 77.105 158.522 76.2468C157.923 75.3886 157.587 74.2255 157.588 73.0132H150.779L161.164 78.487C161.164 78.487 170.254 73.1686 174.869 70.8102V79.276L160.96 87.0372C160.96 87.0372 149.474 80.4957 147.353 79.0377C147.339 79.0377 147.321 79.009 147.321 79.009C147.217 78.9533 147.152 78.8975 147.095 78.8688C145.812 77.8146 145.362 75.4713 146.098 73.6045C146.834 71.7377 148.681 71.3457 149.965 72.3831C150.004 72.4118 150.004 58.7544 149.984 50.3984L155.938 50.9762V52.6031H157.907L157.994 58.8101H155.938V60.3678H158.398L158.32 65.4074H155.938V67.0073H166.065V65.4074H158.319L158.398 60.3678H166.063V58.8101H157.993L157.907 52.6031L162.014 52.6048ZM109.864 83.1076V37.2647H85.9915V74.9392C85.9915 81.4925 88.3937 83.1076 91.6726 83.1076H109.864ZM92.1146 45.896H103.884V56.6899H92.1146V45.896ZM92.1146 64.3008H103.884V73.9559H92.1146V64.3008ZM203.963 36.9978H191.683L191.644 36.9708V57.7289C191.83 60.2039 193.089 63.1351 194.757 63.1351C198.251 63.1351 200.568 63.0506 203.963 63.1351V36.9978ZM196.743 44.8875H198.938V55.0764H196.743V44.8875ZM190.181 36.9978H177.857V57.7289C178.039 60.2039 179.295 63.1351 180.988 63.1351C184.468 63.1351 186.785 63.0506 190.18 63.1351L190.181 36.9978ZM182.978 44.8875H185.157V55.0764H182.978V44.8875ZM201.382 64.9191L180.38 64.9478V76.512C180.58 79.2506 182.348 81.5939 184.077 82.4774C184.665 82.6886 185.283 82.7731 185.868 82.8424L201.384 82.8288L201.382 64.9191ZM185.518 71.9506H196.296V76.2873H185.518V71.9506ZM119.398 83.1363C120.519 81.8861 121.737 81.0735 122.836 79.825V70.1817L115.499 77.0729C114.625 78.166 113.831 79.7676 114.18 81.6344C114.399 83.0806 115.421 84.3291 116.432 84.5673C117.61 84.8072 118.484 83.8932 119.398 83.1363ZM120.397 69.1292L122.836 66.7437L122.857 57.0835C120.475 59.4166 117.913 61.4659 115.579 63.8092C114.586 65.0306 113.91 66.5477 114.303 68.4551C114.586 70.055 115.637 70.996 116.678 71.3187C118.223 71.5704 119.162 69.8573 120.397 69.1292ZM123.586 54.823C122.19 49.2107 120.81 43.595 119.398 38.0503C118.993 37.0839 118.262 36.1007 117.473 35.8338C116.987 35.6867 116.484 35.6974 116.002 35.8653C115.519 36.0331 115.07 36.3537 114.685 36.8035C113.714 38.0807 113.423 39.9881 113.792 41.8296L116.76 53.9563C116.942 54.3888 116.903 55.0781 117.286 55.2589H123.586V54.823ZM142.869 77.0155V82.7714H136.566V85.6215H130.341V82.8407H126.247C126.175 82.8407 126.072 82.8272 125.988 82.8272H125.884C124.786 82.8272 123.877 81.5499 123.877 79.9348C123.877 78.5461 124.588 77.3804 125.523 77.1152C125.62 77.1 125.724 77.0729 125.828 77.0729H125.886C127.88 77.0729 130.341 77.1 130.341 77.1V75.2906H124.526V70.5314H130.341V68.7491H124.526V63.5135H142.868V68.8318H136.565V70.5297H142.868V75.147L136.565 75.174V76.9851L142.869 77.0155ZM130.079 56.3097H136.91V54.796H130.079V56.3097ZM132.084 48.9979H130.079V50.5116H136.91V48.9979H132.084V44.6188L136.762 44.5884L136.741 42.8753C136.422 42.8753 136.378 42.9057 136.358 42.8753C136.252 42.9087 136.144 42.9273 136.036 42.9311C135.493 42.9311 134.973 42.6229 134.589 42.0743C134.205 41.5257 133.99 40.7816 133.99 40.0058C133.99 39.23 134.205 38.4859 134.589 37.9374C134.973 37.3888 135.493 37.0806 136.036 37.0806H142.8V61.7176H129.101C125.425 61.7176 124.118 58.653 124.118 56.5344V37.0822H130.098L130.117 44.6188H132.084V48.9979Z" fill="black"/>
<path fill-rule="evenodd" clip-rule="evenodd" d="M76.4751 40.9073C76.4751 69.1919 60.4575 92.1277 40.6693 92.1277C20.8883 92.1277 4.86469 69.1919 4.86469 40.9073H76.4751Z" fill="black"/>
<path fill-rule="evenodd" clip-rule="evenodd" d="M41.2849 63.0411H41.3074C41.074 64.7769 41.284 66.5747 41.8994 68.1077C42.2968 69.0778 42.8511 69.8976 43.5158 70.4984C44.1804 71.0992 44.9361 71.4636 45.7195 71.561C46.3102 71.6893 46.8609 71.7451 47.4895 71.7198L50.4777 71.7468V66.5366L47.1208 66.5653C46.6316 66.5095 46.0456 66.5095 45.619 66.1311C45.4021 65.9064 45.2338 65.5991 45.1331 65.2443C45.0324 64.8894 45.0034 64.5013 45.0495 64.124C45.352 62.3282 46.7994 62.215 47.7293 61.5139C48.9913 60.8127 50.252 59.4223 50.7412 57.5555C51.3474 55.66 51.2079 53.1072 50.4588 51.3654C49.705 49.5408 48.2622 48.1926 46.7604 48.0254C46.1661 47.9392 45.593 47.995 44.9869 47.968H41.9183V53.1613H45.9061C46.4922 53.1613 47.1007 53.484 47.3075 54.2966C47.467 54.969 47.3075 55.7292 46.9389 56.1634C46.7333 56.4303 46.4922 56.5976 46.2476 56.7378C45.2704 57.2582 44.2767 57.7329 43.4035 58.6047C42.7111 59.2662 42.1443 60.163 41.754 61.2148C41.7339 61.2148 41.7115 61.3551 41.6926 61.3551C41.6725 61.1861 41.7115 60.9614 41.7115 60.8347C41.9549 57.9846 41.0191 55.3204 39.275 53.9857C38.3203 53.1849 37.1399 53.1427 35.9784 53.1579H32.6038V58.2245H36.5054C37.0383 58.2245 37.6468 58.4627 37.8879 59.2618C38.0934 59.9072 37.954 60.6658 37.6244 61.1574C36.991 61.943 36.1828 62.2234 35.4089 62.6441C34.167 63.2202 32.8271 64.6089 32.319 66.4487C31.649 68.2868 31.649 70.924 32.3391 72.7267C33.0492 74.8148 34.5345 76.3032 36.0989 76.6005C36.7712 76.7813 37.505 76.7391 38.2152 76.7948H41.0392V71.664H37.4613C36.7523 71.6083 35.9796 71.3903 35.6913 70.3108C35.4703 69.6502 35.6109 68.7801 35.9571 68.2209C36.6318 67.3222 37.5251 67.1549 38.2955 66.621C39.3956 66.0179 40.6563 64.6849 41.2459 63.1408L41.2849 63.0411ZM68.2465 71.7468V53.1613H61.6225C60.7659 53.1461 59.9943 53.3995 59.3456 54.0736C58.3483 55.1126 57.9584 56.7412 57.9785 58.4813V71.7485H61.7442V58.2837H64.4879V71.7468H68.2465ZM56.0891 53.1613H52.3281V71.7468H56.0891V53.1613ZM30.6376 71.7468H26.873V53.1613H30.6376V71.7468ZM25.0617 71.7468V53.1613H18.414C17.5798 53.1461 16.7893 53.3995 16.1371 54.0736C15.1434 55.1126 14.7558 56.7412 14.7948 58.4813V71.7485H18.5345V58.2837H21.2971V71.7468H25.0617Z" fill="white"/>
</svg>
