<svg width="210" height="128" viewBox="0 0 210 128" fill="none" xmlns="http://www.w3.org/2000/svg">
<path fill-rule="evenodd" clip-rule="evenodd" d="M164.928 70.1462C168.894 70.1462 172.15 66.4682 172.15 61.9891C172.15 57.4428 168.894 53.832 164.928 53.832H39.5389C35.5723 53.832 32.3157 57.4428 32.3157 61.9891C32.3157 66.469 35.5715 70.1462 39.5389 70.1462H164.928Z" fill="black" stroke="black" stroke-width="42.9299" stroke-miterlimit="2.613"/>
<path fill-rule="evenodd" clip-rule="evenodd" d="M103.149 36.0822C118.016 36.0822 130.012 47.9391 130.012 62.5C130.012 77.0609 118.016 88.9178 103.149 88.9178C88.284 88.9178 76.1793 77.0609 76.1793 62.5C76.1793 47.9391 88.284 36.0822 103.149 36.0822Z" fill="white" stroke="black" stroke-width="22.8916" stroke-miterlimit="2.613"/>
<path fill-rule="evenodd" clip-rule="evenodd" d="M107.028 54.5676C107.857 56.373 107.325 58.2448 106.733 59.9158C108.806 58.846 111.173 59.9158 112.889 61.2527C114.37 62.5232 115.258 64.4621 114.726 66.5346C114.31 67.4037 113.837 68.1393 112.889 68.4735C111.646 69.0084 110.225 68.4735 109.101 67.8723C108.272 68.0722 109.042 68.7414 108.865 69.2091C109.101 70.4125 110.403 71.1481 110.225 72.3522C109.042 72.3522 109.397 74.5582 107.857 73.8898C106.437 72.0843 106.733 69.5433 107.207 67.271C107.147 66.8696 108.095 66.8696 107.68 66.3347C107.207 66.2012 107.029 66.7361 106.969 66.8696C105.845 65.6663 104.483 65.3321 104.661 63.3923L104.482 63.1916C103.95 63.3923 103.596 64.0616 103.18 64.3958C104.542 66.2012 104.661 69.2099 103.712 71.2816C102.944 72.0843 103.121 73.6891 101.818 73.6891C100.752 73.6227 99.6275 73.2213 99.3316 72.0843C98.4433 70.2118 100.752 69.5433 101.048 67.9386C101.285 67.203 101.048 66.4011 100.871 65.6655C99.7458 65.7318 99.095 66.8688 97.5558 67.0023C95.5425 67.4709 93.885 67.4037 92.1684 66.3339C90.4517 65.3313 90.3334 63.1908 90.1551 61.5198C90.5101 57.374 93.53 53.4962 96.9633 52.025C100.28 50.0876 105.49 50.2883 107.028 54.5676Z" fill="black"/>
<path fill-rule="evenodd" clip-rule="evenodd" d="M106.555 56.373C106.377 57.2421 105.431 57.0414 104.897 57.5763C103.713 58.4455 102.826 59.3817 101.878 60.4516C101.878 58.4455 102.827 56.5065 104.188 55.5039C105.075 55.5039 106.199 55.5039 106.555 56.373ZM100.872 60.3844C100.338 59.5153 100.398 58.0441 100.753 57.175C101.227 56.1723 102.292 56.1051 103.121 55.7038C102.056 57.1758 101.642 59.0475 100.872 60.3844ZM100.102 60.8529C99.2134 60.2517 98.0292 59.7168 96.7867 59.5824C97.5567 58.6469 98.9775 57.5763 100.28 57.1758L100.102 60.8529Z" fill="white"/>
<path fill-rule="evenodd" clip-rule="evenodd" d="M106.733 57.2421C106.912 58.3119 106.555 59.1139 106.199 59.9167C104.897 59.983 103.596 60.2509 102.589 60.7858C103.891 59.3146 104.839 57.4428 106.733 57.2421ZM99.3917 61.3879C97.9117 61.4542 95.78 62.3233 94.1226 62.7919C94.5959 61.8556 95.1884 60.7858 95.9575 60.1837C97.4375 59.9167 98.385 60.5851 99.3917 61.3879ZM105.667 60.4516C105.667 61.1864 104.897 61.8556 104.542 62.2562L102.827 61.6549C103.535 60.9865 104.661 60.1837 105.667 60.4516ZM99.0358 62.1234C97.4375 63.1261 95.3659 63.8617 94.2409 65.7335C93.8851 65.7335 93.5301 65.2657 93.5301 64.8643C93.3526 63.3268 95.0692 63.1261 95.9575 62.5912C97.0825 62.3233 97.9117 62.3233 99.0358 62.1234ZM103.95 62.5912C103.95 62.9926 103.596 63.3268 103.358 63.3931C103.002 63.5275 102.826 63.1261 102.647 62.7919C102.589 61.8556 103.596 62.3905 103.95 62.5912ZM108.152 64.2631V64.8643C107.384 64.463 106.437 63.661 105.431 63.7945C105.312 63.1261 106.022 62.9926 106.437 62.7247C107.207 62.5912 107.917 63.3932 108.152 64.2631ZM109.811 63.9952C109.811 64.5973 109.397 64.8643 109.219 65.3329C108.508 64.9315 108.449 63.7945 108.095 63.1261C108.687 63.1925 109.278 63.661 109.811 63.9952Z" fill="white"/>
<path fill-rule="evenodd" clip-rule="evenodd" d="M96.55 66.6025C95.4842 67.0711 94.5368 66.202 94.5368 66.202C94.9517 64.3294 97.0826 63.7945 98.4442 63.1924C98.6217 63.1924 98.6809 63.3931 98.8592 63.3267C98.8592 63.3267 97.2601 64.6636 97.2601 65.5999C97.2601 66.469 96.55 66.6025 96.55 66.6025ZM99.5692 63.7945C99.4508 64.3966 99.8059 64.9315 99.7467 65.6671C99.0359 65.8006 98.5034 66.202 97.9117 66.5362C97.3192 65.1322 98.8592 64.263 99.5692 63.7945ZM107.679 65.4664C106.968 64.7308 105.431 65.8006 105.252 64.4629C106.022 64.263 107.207 64.5972 107.679 65.4664ZM112.121 65.7334L112.062 66.1348C112.416 66.4027 112.83 66.4027 112.83 67.0711C112.653 67.4053 112.83 67.8067 112.416 67.9402L111.646 67.0711C111.351 67.4053 112.594 68.4751 111.351 68.2744C110.759 68.4751 110.995 67.6732 110.7 67.4053V67.2046C110.817 67.2046 111.468 67.4725 111.587 67.2718L110.343 66.1348C110.817 66.1348 111.351 66.202 111.764 66.0013C111.172 65.5327 110.343 65.9341 109.751 65.6671L110.167 64.3966C110.817 64.5972 111.468 65.1322 112.121 65.7334ZM100.517 65.3328H100.338L100.398 64.7308C100.517 64.8643 100.517 65.065 100.517 65.3328ZM107.503 65.9341C107.147 66.202 106.437 66.3355 106.082 65.9341L106.023 65.5327C106.733 65.4664 106.912 65.6671 107.503 65.9341ZM110.403 67.9394L109.752 67.873V67.2038C110.225 67.0711 110.225 67.6052 110.403 67.9394ZM100.338 72.0851C100.279 70.8146 101.819 70.079 102.055 68.8757C101.878 70.079 101.345 71.3495 100.338 72.0851ZM108.806 72.5537C108.45 72.4193 107.857 71.5502 108.095 70.8818L108.806 72.5537ZM42.144 63.928C42.0848 64.5301 41.9665 64.7308 42.9731 64.7971L42.9139 65.2657H38.6515L38.7106 64.7971C39.7173 64.7308 39.7765 64.5972 39.8356 63.928L40.9606 57.9777C41.0789 57.3093 41.0789 57.1757 40.1323 57.1086L40.2498 56.6408H45.2231C47.0581 56.6408 47.2947 57.8442 47.2947 58.4462C47.2947 60.1173 45.993 61.6557 43.0914 61.5885L43.1506 61.1871C43.8014 61.0536 44.6898 60.1173 44.6898 58.3791C44.6898 57.5099 44.2756 57.2429 43.9206 57.2429H43.3873L42.144 63.928ZM48.7747 57.6427C48.8339 57.4428 48.8339 57.3085 48.8339 57.1749C48.8339 56.8407 48.5972 56.8407 48.4789 56.8407L47.7681 56.9071L47.8272 56.5057L51.2022 56.1715L50.1955 61.2527H50.2547C51.083 59.8487 52.5638 58.9795 53.6288 58.9795C54.043 58.9795 54.2797 59.1802 54.2797 59.7151C54.2797 59.915 54.2213 60.1829 54.1621 60.4507L53.5697 63.3923C53.4513 63.7937 53.5105 63.9944 53.688 63.9944C53.7472 63.9944 53.8655 63.9944 54.043 63.8608L54.5172 63.593L54.6947 64.0615L52.1489 65.3984C51.7938 65.3984 51.6155 65.2649 51.438 64.9978C51.3197 64.7963 51.2605 64.3286 51.3789 63.9272L51.9706 61.1863C52.1481 60.5851 52.1481 60.1837 51.8522 60.1837C51.4972 60.1837 50.1356 61.6549 49.6031 64.1287L49.3664 65.2657H47.2939L48.7747 57.6427ZM55.0497 59.8495L58.0688 58.9803H58.2463C58.3646 58.9803 58.5421 59.0467 58.5421 59.3146C58.5421 59.4481 58.5421 59.5152 58.4838 59.6488L57.8321 62.9254C57.6546 63.7945 57.7138 63.9952 57.8321 63.9952C57.9505 63.9952 58.0688 63.9952 58.2471 63.8617L58.6613 63.5938L58.8396 64.0623L56.3529 65.3992C55.8204 65.3328 55.5838 65.1322 55.5238 64.5301V63.928L56.1746 60.6522C56.2338 60.318 56.3521 59.9838 56.1155 59.9838C55.9372 59.9838 55.8196 60.0509 55.583 60.1173L55.168 60.2508L55.0497 59.8495ZM56.3521 57.4428C56.4113 56.8415 56.8263 56.1723 57.5955 56.1723C58.3063 56.1723 58.6021 56.8407 58.5429 57.4428C58.4846 58.044 58.0696 58.7133 57.2996 58.7133C56.5888 58.7133 56.2338 58.044 56.3521 57.4428ZM61.8579 62.9254C61.7988 63.3931 61.7396 63.661 61.7396 63.7945C61.7396 63.9952 61.7988 63.9952 61.8579 63.9952C61.9763 63.9952 62.0946 63.9952 62.2129 63.8617L62.6871 63.5938L62.8646 64.0623L60.3779 65.3992C59.9046 65.3328 59.5488 65.1322 59.5488 64.3966V63.928L60.7921 57.6435C60.8505 57.4436 60.8505 57.3093 60.8505 57.1757C60.8505 56.8415 60.6138 56.8415 60.4963 56.8415L59.7855 56.9079L59.8446 56.5065L63.2196 56.1723L61.8579 62.9254ZM65.9429 62.9254C65.8837 63.3931 65.8245 63.661 65.8245 63.7945C65.8245 63.9952 65.8837 63.9952 65.9429 63.9952C66.0612 63.9952 66.1795 63.9952 66.3578 63.8617L66.772 63.5938L66.9495 64.0623L64.4629 65.3992C63.9895 65.3328 63.6337 65.1322 63.6337 64.3966V63.928L64.8771 57.6435C64.9362 57.4436 64.9362 57.3093 64.9362 57.1757C64.9362 56.8415 64.6996 56.8415 64.5812 56.8415L63.8704 56.9079L63.9304 56.5065L67.3045 56.1723L65.9429 62.9254ZM67.4229 59.8495L70.442 58.9803H70.6195C70.7378 58.9803 70.9161 59.0467 70.9161 59.3146C70.9161 59.4481 70.857 59.5152 70.857 59.6488L70.2061 62.9254C70.0286 63.7945 70.0286 63.9952 70.2061 63.9952C70.3245 63.9952 70.4428 63.9952 70.5611 63.8617L71.0345 63.5938L71.212 64.0623L68.6662 65.3992C68.192 65.3328 67.9554 65.1322 67.8962 64.5301C67.837 64.3294 67.8962 64.1287 67.8962 63.928L68.547 60.6522C68.6062 60.318 68.7245 59.9838 68.4287 59.9838C68.3112 59.9838 68.192 60.0509 67.9554 60.1173L67.482 60.2508L67.4229 59.8495ZM68.6662 57.4428C68.7245 56.8415 69.1987 56.1723 69.9687 56.1723C70.6787 56.1723 70.9745 56.8407 70.9161 57.4428C70.857 58.044 70.442 58.7133 69.6728 58.7133C68.962 58.7133 68.607 58.044 68.6662 57.4428Z" fill="white"/>
<path fill-rule="evenodd" clip-rule="evenodd" d="M71.4478 61.3879L72.632 60.6523L73.0462 58.7134L75.237 58.1785L74.9403 59.6496L75.5328 59.3154C75.9771 59.1037 76.4616 58.9897 76.9536 58.9812C78.2561 58.9812 78.2561 60.4524 78.2561 60.9202C78.2561 63.4612 76.3611 65.4673 73.8161 65.2666L73.4603 67.0048C73.4603 67.2055 73.4012 67.4733 73.4603 67.6069C73.4603 67.7404 73.7562 67.8747 74.5853 67.8747L74.467 68.3425H70.3229L70.3828 67.8747C70.8562 67.8747 71.2112 67.7404 71.2703 67.6069C71.3295 67.4733 71.3887 67.2055 71.3887 67.0048L72.5137 61.3223L71.5662 61.9236L71.4478 61.3879ZM73.9345 64.7972C74.0536 64.8644 74.1719 64.8644 74.2903 64.8644C75.1186 64.8644 76.1253 63.5275 76.1253 61.12C76.1253 60.1174 75.8294 59.7832 75.592 59.7832C75.3545 59.7832 75.0003 59.9831 74.8228 60.2509L73.9345 64.7972ZM83.5844 60.5851H83.1702C82.9927 59.8495 82.6369 59.4482 82.2819 59.4482C81.9861 59.4482 81.5127 59.5817 81.5127 60.2509C81.5127 60.7858 81.9277 61.1864 82.4602 61.7213C82.8744 62.1891 83.3477 62.724 83.3477 63.5931C83.3477 64.5294 82.3411 65.3985 80.4469 65.3985C79.5586 65.3985 78.9669 65.1978 78.6119 64.8636L78.7894 63.3924H79.2044C79.3219 64.3287 79.7961 64.9979 80.3877 64.9979C81.0985 64.9307 81.3944 64.3287 81.3944 63.9945C81.3944 63.326 81.1577 62.9918 80.5061 62.3897C79.9144 61.7877 79.6178 61.4535 79.6178 60.6515C79.6178 59.4482 80.6244 58.9804 81.9861 58.9804C82.6369 58.9804 83.4069 59.1139 83.7619 59.3146L83.5844 60.5851ZM130.236 61.1872H131.301C131.656 61.1872 131.892 60.9873 132.249 60.3181L132.486 59.8503H132.84L132.19 63.1269H131.893L131.776 62.5249C131.717 61.99 131.539 61.7893 131.183 61.7893H130.118L129.645 64.3974C129.585 64.9995 129.407 65.1994 130.472 65.2666L130.415 65.7343H126.151L126.211 65.2666C127.159 65.1994 127.218 65.0659 127.335 64.3974L128.46 58.3799C128.577 57.7787 128.577 57.578 127.631 57.5108L127.75 57.0431H133.906L133.491 59.0492H133.195C133.078 58.2472 132.84 57.7123 132.13 57.7123H130.886L130.236 61.1872ZM133.965 63.2597C133.965 60.7187 135.682 59.3818 137.458 59.3818C139.115 59.3818 140.004 60.518 140.004 61.9892C140.004 64.5302 138.288 65.8678 136.51 65.8678C134.854 65.8678 133.965 64.7309 133.965 63.2597ZM136.037 64.0624C136.037 64.2631 136.096 65.4665 136.688 65.4665C137.517 65.4665 137.931 61.5214 137.871 60.7858C137.871 59.8495 137.576 59.7832 137.339 59.7832C136.689 59.7832 135.978 62.5241 136.037 64.0624ZM140.655 63.2597C140.655 60.7187 142.371 59.3818 144.208 59.3818C145.805 59.3818 146.694 60.518 146.694 61.9892C146.694 64.5302 144.976 65.8678 143.2 65.8678C141.544 65.8678 140.655 64.7309 140.655 63.2597ZM142.787 64.0624C142.787 64.2631 142.787 65.4665 143.379 65.4665C144.208 65.4665 144.622 61.5214 144.622 60.7858C144.622 59.8495 144.266 59.7832 144.03 59.7832C143.379 59.7832 142.668 62.5241 142.787 64.0624ZM153.384 63.8617C153.266 64.463 153.384 64.5973 153.858 64.3295L154.331 64.0624L154.509 64.463L151.964 65.8678C151.667 65.8007 151.431 65.6671 151.313 65.4665C151.134 65.2658 151.134 64.7309 151.194 64.3966L151.432 63.2597L151.373 63.1925C150.544 64.8644 149.3 65.8678 148.59 65.8678C147.82 65.8678 147.347 65.0651 147.347 63.7946C147.347 61.9892 148.768 59.5153 152.143 59.5153L152.438 58.1113C152.497 57.9106 152.497 57.7771 152.497 57.6427C152.497 57.3085 152.259 57.3085 152.143 57.3085L151.432 57.3757L151.549 56.908L154.864 56.6409L153.384 63.8617ZM151.193 60.1174C149.831 60.1174 149.477 62.5912 149.536 63.4604C149.536 63.9953 149.653 64.2631 150.009 64.2631C150.542 64.2631 151.607 61.7885 152.082 60.1174H151.193ZM159.778 61.0537H159.364C159.185 60.2517 158.829 59.8503 158.475 59.8503C158.238 59.8503 157.705 59.9839 157.705 60.7195C157.705 61.1872 158.119 61.5886 158.653 62.1907C159.068 62.6584 159.54 63.1933 159.54 63.9961C159.54 64.9323 158.534 65.8686 156.64 65.8686C155.752 65.8686 155.219 65.6008 154.805 65.2666L154.982 63.8625H155.455C155.514 64.798 155.989 65.4001 156.64 65.4001C157.291 65.4001 157.587 64.798 157.587 64.3974C157.587 63.7282 157.351 63.4612 156.7 62.7927C156.166 62.1906 155.871 61.9236 155.871 61.0545C155.871 59.8511 156.818 59.3826 158.179 59.3826C158.83 59.3826 159.6 59.5161 159.957 59.784L159.778 61.0537Z" fill="white"/>
</svg>
