<svg width="210" height="128" viewBox="0 0 210 128" fill="none" xmlns="http://www.w3.org/2000/svg">
<path fill-rule="evenodd" clip-rule="evenodd" d="M167.388 54.9281C162.157 54.9281 160.062 58.2672 160.062 63.9974C160.062 70.8739 162.356 73.8133 167.487 73.8133C172.671 73.8133 174.762 70.5744 174.762 64.0469C174.762 58.0173 172.572 54.9281 167.388 54.9281ZM167.487 70.0259C165.147 70.0259 164.2 68.1823 164.2 63.8476C164.2 60.2595 165.297 58.6153 167.487 58.6153C169.68 58.6153 170.528 60.3597 170.528 63.8972C170.528 68.2815 169.931 70.0259 167.487 70.0259ZM61.1085 55.2126C59.5138 55.2126 58.5171 55.6112 56.9224 56.4581V49.9307H52.6372V73.5009H56.9224V62.9867C56.9224 60.3457 57.6702 58.9999 59.962 58.9999C62.2538 58.9999 62.7032 60.3953 62.7032 62.9867V73.5009H66.9884V62.9867C66.9884 57.9041 66.1404 55.2126 61.1085 55.2126ZM41.4151 60.7573C41.4151 59.612 42.6111 58.7144 44.1552 58.7144C45.9988 58.7144 46.8468 59.7607 46.9965 61.4545H51.1815C51.0318 57.4182 49.089 55.1759 44.305 55.1759C40.1695 55.1759 37.9273 57.2188 37.0793 60.3587C34.7379 52.2861 29.3558 47.0538 21.2832 47.0538C11.7657 47.0538 4.34073 54.7772 4.34073 64.3454C4.34073 73.7638 11.7657 81.637 21.433 81.637C29.3569 81.637 34.5386 76.7042 36.88 68.6317C37.6773 72.3695 39.87 74.1624 44.2048 74.1624C48.8391 74.1624 51.4304 71.9202 51.4304 67.9841C51.4304 60.7573 41.4151 64.2452 41.4151 60.7573ZM44.4537 70.4742C42.5099 70.4742 41.7136 69.5271 41.2654 67.3344H36.5308C35.3348 72.6669 31.4483 76.5038 25.3691 76.5038C18.193 76.5038 13.2096 70.9224 13.2096 64.395C13.2096 57.4688 18.4419 52.1374 25.2193 52.1374C30.8999 52.1374 34.9868 55.5757 36.4813 60.3102C37.6277 63.8982 38.0264 65.2936 40.718 65.8905C40.8667 65.9401 44.1552 66.3894 44.4052 66.439C46.1496 66.6879 47.0461 67.037 47.0461 68.4819C47.045 69.6273 46.0979 70.4742 44.4537 70.4742Z" fill="black"/>
<path fill-rule="evenodd" clip-rule="evenodd" d="M25.4563 57.0195C21.5698 57.0195 18.5302 60.3091 18.5302 64.146C18.5302 68.331 21.42 71.4708 25.4068 71.4708C29.4431 71.4708 32.4827 68.2815 32.4827 64.3949C32.4827 60.4082 29.3439 57.0195 25.4563 57.0195ZM101.635 55.8763L99.742 68.8321L97.3004 55.8763H91.8192L89.676 68.8321L87.6827 55.8763H83.2477L86.4866 73.5159H92.5163L94.6594 60.8597L96.9513 73.5159H102.981L106.019 55.8763H101.635ZM75.8776 55.2266C70.6453 55.2266 68.8017 58.0173 68.8017 61.4555H72.9878C73.1376 59.6119 73.9349 58.7155 75.8776 58.7155C78.2697 58.7155 78.4195 59.9115 78.4195 62.7518H74.3832C70.8457 62.7518 68.6024 64.5954 68.6024 68.233C68.6024 72.3188 70.9944 73.5149 74.3832 73.5149H82.6551V60.7078C82.654 57.6186 80.4613 55.2266 75.8776 55.2266ZM78.4184 69.9268H75.577C73.8832 69.9268 72.9361 69.7275 72.9361 68.1328C72.9361 66.4896 73.9328 66.1394 75.577 66.1394H78.4184V69.9268ZM138.136 53.8668H147.306V49.4318H133.851V73.4998H138.136V63.6838H144.016V59.2973H138.136V53.8668Z" fill="black"/>
<path fill-rule="evenodd" clip-rule="evenodd" d="M151.948 54.9281C146.714 54.9281 144.622 58.2672 144.622 63.9973C144.622 70.8739 146.914 73.8133 152.047 73.8133C157.231 73.8133 159.322 70.5743 159.322 64.0469C159.322 58.0172 157.129 54.9281 151.948 54.9281ZM152.047 70.0259C149.704 70.0259 148.757 68.1823 148.757 63.8476C148.757 60.2595 149.854 58.6152 152.047 58.6152C154.239 58.6152 155.085 60.3597 155.085 63.8971C155.085 68.2814 154.488 70.0259 152.047 70.0259ZM201.49 63.0513L198.101 62.5028C196.458 62.2539 195.86 61.8542 195.86 60.808C195.86 59.6626 196.855 58.7155 198.501 58.7155C200.443 58.7155 201.091 59.7121 201.391 61.406H205.627C205.627 56.971 202.786 55.1274 198.699 55.1274C194.115 55.1274 191.375 57.5194 191.375 61.3058C191.375 63.7474 192.57 65.3916 195.212 65.8398L199.547 66.5876C200.742 66.787 201.441 67.3343 201.441 68.4808C201.441 69.5281 200.543 70.4741 198.849 70.4741C196.608 70.4741 195.959 69.1294 195.61 67.2848H191.176C191.176 72.2682 194.166 74.1118 198.899 74.1118C202.986 74.1118 205.926 72.1184 205.926 68.0325C205.926 64.994 204.28 63.4995 201.49 63.0513ZM186.215 49.2831V55.5121C184.868 54.9141 183.724 54.6156 182.477 54.6156C177.892 54.6156 175.699 58.5021 175.699 64.382C175.699 70.8599 178.143 74.0493 182.328 74.0493C183.971 74.0493 185.017 73.601 186.214 72.6043L186.364 73.5008H190.449V49.2831H186.215ZM186.215 66.9238C186.215 68.7178 184.868 70.0625 183.124 70.0625C180.634 70.0625 179.936 68.1198 179.936 63.5846C179.936 59.947 180.781 58.3523 183.025 58.3523C184.919 58.3523 186.215 59.7477 186.215 61.6408V66.9238ZM113.124 55.2265C107.893 55.2265 106.05 58.0172 106.05 61.4555H110.236C110.385 59.6119 111.183 58.7155 113.126 58.7155C115.519 58.7155 115.667 59.9115 115.667 62.7518H111.631C108.094 62.7518 105.85 64.5953 105.85 68.233C105.85 72.3188 108.241 73.5148 111.631 73.5148H119.902V60.7077C119.901 57.6186 117.708 55.2265 113.124 55.2265ZM115.666 69.9268H112.825C111.131 69.9268 110.184 69.7274 110.184 68.1327C110.184 66.4896 111.182 66.1394 112.825 66.1394H115.666V69.9268Z" fill="black"/>
</svg>
